<svg xmlns="http://www.w3.org/2000/svg" width="512" height="512" fill="none" viewBox="0 0 512 512">
    <g clip-path="url(#a)">
        <path fill="#f7eedf" d="M0 0h512v512H0z"/>
        <path fill="#1d384b"
              d="M255 81h2l9 42 1 5 1 2 1 8h2q32 5 56 24l7 3 6-3 2-2 2-1 2-1 5-4 2 2-1 1-4 7-1 2-2 2-1 2-1 6 5 7c12 15 24 37 23 58h3l11 2 2 1 6 1 33 8v3l-22 5-3 1-9 2h-3l-18 3v3c0 21-12 44-25 59l-3 4q1 4 3 8l1 2 6 9-1 2-12-7-2-1-4-3-9 6c-17 12-37 22-58 22v2l-5 24-1 4-4 17h-2l-8-33-1-5v-2l-1-7h-2q-32-3-59-25l-6-3-3 2-3 2-2 2-10 5 4-11 6-9-1-2c-15-17-28-42-28-65l-20-3-3-1-20-4h-2l-3-1h-2l-6-3q3-3 7-3l3-1 3-1 13-3 3-1 9-2h3l15-3v-2q5-36 29-64l-11-20q6 1 11 4c4 4 4 4 10 6l6-4c16-12 37-23 57-23l8-42 1-4 1-3v-4z"/>
        <path fill="#f6eddf"
              d="M255 134h2v2l3 21 1 7 2 18 1 3 1 4 11-8q1-5-1-10l-3-20 20 4q18 7 33 20l1 1q29 25 33 62l-14-2-2-1-4-1-6-1-4-1h-4l-6-2-1 4-3 10 64 9q-4 4-9 3l-52 6-8 1-5 1h-2q-8 1-14 7l-2 1-1 2-4 3-1 1-4 4q-8 5-9 16v3l-6 34-5 27h-2v-2l-9-48-1-6-1-8-1-3c-1-7-1-7-5-12l-10-9-3-2-4-4q-4-4-11-3l-2-1-34-4h-2l-28-4h-7l-2-1-1-2 46-6 3-1h4l3-1h9l-1-3-2-3-2-4-1-5-3 1-28 6h-9q6-33 30-58l2-2c13-14 34-25 53-26h2q-1 12-3 23v8l5 4 5 3z"/>
        <path fill="#e94734"
              d="M242 196q9 6 13 16h2l1-2q6-12 17-16 10-3 19 1 11 6 15 18 2 17-8 29l-26 25-7 5-2 2-3 4-5 4q-6-1-11-6l-2-2-19-17c-11-10-22-20-23-35q-1-13 7-21 15-14 32-5"/>
        <path fill="#f5eddf"
              d="m154 270 53 11 2 1 5 1 5 1v5l-2 3-1 3-2 3-4 6-2 3-2 5 24-14 8 35v4l4 22q-44-7-71-42-15-21-17-47M358 270v9l-1 3-1 2q-7 25-25 44l-2 2a95 95 0 0 1-37 24l-2 1q-9 4-20 4l4-22 1-3 7-34q5-1 9 3l15 9-4-8-2-3-3-7-2-3-2-3-1-4 3-1z"/>
        <path fill="#e94836"
              d="M255 81h2l9 42 1 5 1 2 1 8 3 1h-3l1 4 1 7 3 1h-2v2l3 10v4l1 3 1 3v8l-5 4-3 2-5 3-4-28-1-8-1-5v-2l-1-13h-2v2l-3 27v6l-4 21-5-3-3-2-5-4 1-8v-2l3-21h2v-4l1-3 1-4-3-1h3l8-42 1-4 1-3v-4z"/>
        <path fill="#f1e5d1" d="m238 154 2 2-1 5v3l-1 3v3l-2 7h-1q0-12 2-22z"/>
        <path fill="#283f4e" d="m422 252 2 1h2v3q-7 2-12-1v-3z"/>
        <path fill="#e55245" d="m256 130 1 4h-2l-1 14q-4-4-3-7l1-3v-3q1-3 4-5"/>
        <path fill="#d3574a" d="m243 136 3 1-1 5h-2l1 2-2 8 2 1-3 2-2-5h2v-4l1-3 1-4-3-1h3z"/>
        <path fill="#e2493e" d="M247 273h5l1 4h2v3q4-2 4-5l1 5-2 2q-4 0-8-4l-2-2z"/>
        <path fill="#f3f0e5" d="m365 252 14 1q-4 3-9 3h-7l-1-2h3z"/>
        <path fill="#183446" d="m335 165 3 1 2 5 2 2h-2l-1 2-3 1 1-2v-3l-3-3zm5 1v3zm-8 3 2 1z"/>
        <path fill="#f0e8d7" d="M272 151h5l1 5-3-1-1 8h-1z"/>
        <path fill="#d85344" d="m268 136 1 2 3 1h-3l2 10-3 1-1-6-1-3v-3z"/>
        <path fill="#f0e4d1" d="M260 163h1l2 19q-6-6-4-16z"/>
        <path fill="#213d4d" d="M250 389h3q3 2 2 6h-2v2l-3 1z"/>
        <path fill="#e64e40" d="M261 140h1l-1 15h-2l-1-11h3z"/>
        <path fill="#f0e8d3" d="M253 155h1q1 9-2 17h-1q0-8 2-17"/>
        <path fill="#2b4554" d="M253 349h1l1 4v3l-2 6q-4-3-3-8h2z"/>
        <path fill="#273c48" d="M269 139h9l-2 1v3h-4l-2 4z"/>
        <path fill="#1e3547" d="m99 252-2 3-2-1-7 1-1-2q5-2 12-1"/>
        <path fill="#2c3d49" d="M347 345h2l4 8-3 1-3-3h2v-3h-2z"/>
        <path fill="#2c4455" d="m361 256 8 1-2 1-3 3 2 1v2l-6-2 3-4z"/>
        <path fill="#2e414f" d="m263 326 3 7h-3v5h-2v-4l1-3z"/>
        <path fill="#e9e7db" d="M235 325h1l1 7-4 4v-7l1-2z"/>
        <path fill="#183345" d="M273 284q4 0 7 3v2l-4 1-3-3-2-1z"/>
        <path fill="#2c404f" d="m92 253 4 3-1 2-4-1h-3l-2-1-1-2h3z"/>
        <path fill="#173444" d="M319 239h2v2l2 1v2l-7 1z"/>
        <path fill="#273c4b" d="m298 297 6 9-5 1 1-6h-2z"/>
        <path fill="#e44e3e" d="m231 193 6 1-5 4zm-7 5h8v1h-8z"/>
        <path fill="#233e4f" d="M318 272h6l-1 1q-2 2-2 6l-3-1v-3l-2-1h2z"/>
        <path fill="#e04e3d" d="m248 266-1 2-3-1 1 3-2 2-3-4h2v-2z"/>
        <path fill="#2a4252" d="m330 260 8 1q-1 4-5 4l-2-1z"/>
        <path fill="#183243" d="M173 260h5v3l-10 1 4-2z"/>
        <path fill="#163243" d="m175 177 2 3-1 1 2 4-2 1v-3l-1 3-3-1z"/>
        <path fill="#f1e8d7" d="M202 224h2l1 8h-3z"/>
        <path fill="#f4e1d1" d="M254 202q2 4 3 10h-2l-4-7h3z"/>
        <path fill="#de493c" d="M237 195q5 1 8 5l-3 1v-2h-4z"/>
        <path fill="#1f3143" d="M289 365h4q-4 3-10 3l-1-2z"/>
        <path fill="#273d4e" d="M335 323h2v3l2 1-8 1z"/>
        <path fill="#273f4f" d="m211 301 6 4v2l-3 1-4-6z"/>
        <path fill="#314958" d="M223 281v2h-2l-1 3-6-2q4-4 9-3"/>
        <path fill="#263f4e" d="m103 255 9 1-10 4z"/>
        <path fill="#e14d3c" d="M304 228h4l-4 8z"/>
        <path fill="#e45442" d="m252 93 2 1 1 8-4-2z"/>
        <path fill="#283844" d="M303 307h2l3 6-6-2-1-2h2z"/>
        <path fill="#173245" d="m149 285 3 1 1 4-6 4 1-2z"/>
        <path fill="#f4e2d4" d="m279 262 1 4-6 3-2-1z"/>
        <path fill="#264155" d="m154 257 4 1v3h-6z"/>
        <path fill="#f5e2d1" d="M296 249q-1 5-6 6h-3l3-3 1-2z"/>
        <path fill="#274254" d="m180 243 7 1-1 3h-4v-2h-2z"/>
        <path fill="#e85340" d="m244 131 6 2-1 5-1-3-4-1z"/>
        <path fill="#1a3142" d="M274 323h3l-1 7-1-2h-2z"/>
        <path fill="#efe5d5" d="m244 272 4 4-4-1 2 4-4-1z"/>
        <path fill="#2b4454" d="M188 242h5v3l-4 1z"/>
        <path fill="#e0503c" d="m237 176 2 1-1 6-3-2z"/>
        <path fill="#ece7d8" d="m234 151 3 1-1 3h-2l-1 2-1-5z"/>
        <path fill="#e4584e" d="M249 107q3 2 2 5v3h-3z"/>
        <path fill="#e4e3de" d="m218 284 2 1-2 6h-2v-5z"/>
        <path fill="#153145" d="m335 260 9 1v2h-6v-2z"/>
        <path fill="#e1574b" d="m203 214 4 2-1 3h-2v5h-1z"/>
    </g>
    <defs>
        <clipPath id="a">
            <path fill="#fff" d="M0 0h512v512H0z"/>
        </clipPath>
    </defs>
</svg>