<?xml version="1.0" encoding="UTF-8"?>
<svg version="1.1" xmlns="http://www.w3.org/2000/svg" width="500" height="500">
    <path
            d="M0 0 C0.99 0.33 1.98 0.66 3 1 C3.13535156 1.8559375 3.27070313 2.711875 3.41015625 3.59375 C5.36887838 15.32262505 7.8943317 26.91196823 10.48657227 38.51367188 C12.15137897 45.9841476 13.71325789 53.45415536 15 61 C16.258125 61.29132813 17.51625 61.58265625 18.8125 61.8828125 C36.19138136 66.00007621 50.99153421 71.24272319 66 81 C66.58104492 81.36061523 67.16208984 81.72123047 67.76074219 82.09277344 C69.2088227 83.00873308 70.60971501 83.99848771 72 85 C72 85.66 72 86.32 72 87 C73.64616733 87.91595885 73.64616733 87.91595885 76 88 C78.4407471 86.67082206 80.61028295 85.33193612 82.875 83.75 C87.14260183 80.84068865 91.30833827 78.20952876 96 76 C96 80.29536315 95.47186714 81.32020883 93.25 84.8125 C92.70730469 85.6890625 92.16460937 86.565625 91.60546875 87.46875 C90.63741999 88.99501667 89.66282611 90.51719888 88.67578125 92.03125 C86.88137377 94.90230197 85.95784061 96.50462714 86.25 99.9375 C86.62125 100.9584375 86.62125 100.9584375 87 102 C87.66 102 88.32 102 89 102 C95.6456489 109.47186471 99.81471936 119.01459702 104 128 C104.41378906 128.886875 104.82757813 129.77375 105.25390625 130.6875 C109.37073691 140.24500491 111.58955708 150.73489636 113 161 C113.54155731 161.10831146 114.08311462 161.21662292 114.64108276 161.32821655 C115.41034088 161.48206818 116.179599 161.6359198 116.97216797 161.79443359 C117.84082489 161.96816498 118.70948181 162.14189636 119.60446167 162.32089233 C120.55741119 162.51148224 121.51036072 162.70207214 122.4921875 162.8984375 C123.95484543 163.19096909 123.95484543 163.19096909 125.447052 163.4894104 C132.69126383 164.93825277 139.93547567 166.38709513 147.1796875 167.8359375 C148.11239471 168.02247894 149.04510193 168.20902039 150.006073 168.4012146 C154.56280518 169.31256104 159.11953735 170.22390747 163.67626953 171.13525391 C164.50675812 171.30135162 165.3372467 171.46744934 166.19290161 171.63858032 C166.78924408 171.75784882 167.38558655 171.87711731 168 172 C168.33 172.99 168.66 173.98 169 175 C161.84857812 176.57531361 154.69507045 178.14087036 147.54003906 179.69970703 C145.10693196 180.230997 142.67430854 180.76450716 140.2421875 181.30029297 C136.74344092 182.07064608 133.2430247 182.83296176 129.7421875 183.59375 C128.65759247 183.83436157 127.57299744 184.07497314 126.45553589 184.32287598 C121.56898204 185.37730657 117.03367882 186.33406013 112 186 C112.03351563 187.010625 112.06703125 188.02125 112.1015625 189.0625 C111.62391572 207.58049822 101.05834823 226.91247765 91 242 C90.34 242 89.68 242 89 242 C88.34 243.65 87.68 245.3 87 247 C86.34 247 85.68 247 85 247 C85.36351562 247.66644531 85.72703125 248.33289063 86.1015625 249.01953125 C87.15734491 250.95513234 88.21195248 252.89137455 89.265625 254.828125 C90.4131154 256.92668853 91.56925146 259.02054991 92.734375 261.109375 C93.27578125 262.08390625 93.8171875 263.0584375 94.375 264.0625 C94.87773437 264.96097656 95.38046875 265.85945313 95.8984375 266.78515625 C97 269 97 269 97 271 C91.11860808 270.47872056 87.05210281 266.78164095 82.43945312 263.41796875 C81.79814453 262.96808594 81.15683594 262.51820313 80.49609375 262.0546875 C79.92044678 261.63687012 79.3447998 261.21905273 78.75170898 260.78857422 C77.00165049 259.81770559 77.00165049 259.81770559 74.93701172 260.26000977 C72.08830946 261.34829015 70.05632889 263.1523655 67.6875 265.0625 C51.80791514 277.41384037 33.80057915 283.31134268 14 286 C13.81207886 287.04619507 13.81207886 287.04619507 13.62036133 288.11352539 C10.72706605 304.15195995 7.57033847 320.0989162 4 336 C3.61805693 337.7160496 3.23652249 339.43219021 2.85546875 341.1484375 C2.57316406 342.41945313 2.29085937 343.69046875 2 345 C1.34 345 0.68 345 0 345 C-2.98425632 332.81539855 -5.30147381 320.49969776 -7.6875 308.1875 C-8.10721594 306.03055888 -8.52713617 303.87365749 -8.94726562 301.71679688 C-9.96719943 296.47832043 -10.98461062 291.23935909 -12 286 C-12.56331024 285.89224747 -13.12662048 285.78449493 -13.70700073 285.67347717 C-16.30304024 285.17397277 -18.89759296 284.66711062 -21.4921875 284.16015625 C-22.37801514 283.99084595 -23.26384277 283.82153564 -24.17651367 283.64709473 C-40.55338541 280.42819235 -56.78497829 273.42485297 -69.2734375 262.09765625 C-71.69227199 259.72883479 -71.69227199 259.72883479 -73.96337891 260.24194336 C-77.27579531 261.47486747 -80.08795227 263.53223553 -83 265.5 C-89.86663808 270.14000858 -89.86663808 270.14000858 -94 271 C-94.33 270.34 -94.66 269.68 -95 269 C-93.79878485 266.63316126 -92.55307472 264.39402602 -91.1875 262.125 C-87.92539985 256.65449559 -87.92539985 256.65449559 -85 251 C-84.34 251 -83.68 251 -83 251 C-84.37314349 247.10361822 -86.17737935 244.20706777 -88.6875 240.9375 C-99.79013872 225.87967172 -110.28588415 205.2416851 -110 186 C-111.06118042 185.94066284 -111.06118042 185.94066284 -112.14379883 185.88012695 C-120.18343524 185.3326389 -127.83305384 183.94992405 -135.6875 182.1875 C-136.90469727 181.92050293 -138.12189453 181.65350586 -139.37597656 181.37841797 C-148.60525578 179.34337536 -157.81596903 177.23040752 -167 175 C-167 174.34 -167 173.68 -167 173 C-163.3523716 170.81749358 -159.54083978 170.26179407 -155.41015625 169.60546875 C-153.87747369 169.34858595 -152.34509324 169.0898954 -150.81298828 168.82958984 C-150.02031555 168.69518494 -149.22764282 168.56078003 -148.41094971 168.42230225 C-144.48944024 167.73541017 -140.5867062 166.95962678 -136.68359375 166.17578125 C-135.53970688 165.94639359 -135.53970688 165.94639359 -134.37271118 165.71237183 C-132.06066144 165.24728415 -129.74907171 164.7799571 -127.4375 164.3125 C-125.82881306 163.9887483 -124.22008922 163.66517987 -122.61132812 163.34179688 C-118.74045953 162.5632966 -114.87008928 161.78236479 -111 161 C-110.86948242 160.42668945 -110.73896484 159.85337891 -110.60449219 159.26269531 C-109.13034295 152.82652358 -107.59301984 146.40778074 -106 140 C-105.72414062 138.89011719 -105.44828125 137.78023437 -105.1640625 136.63671875 C-101.90084549 125.47393185 -95.43150153 114.6472523 -89 105 C-88.34 105 -87.68 105 -87 105 C-86.34 103.35 -85.68 101.7 -85 100 C-84.34 100 -83.68 100 -83 100 C-86.45879966 93.54848006 -90.02255248 87.20744794 -93.8984375 80.99609375 C-95 79 -95 79 -95 77 C-90.68690287 77.58778856 -87.65479388 79.14744336 -83.9375 81.375 C-82.91527344 81.98085937 -81.89304687 82.58671875 -80.83984375 83.2109375 C-78.45822689 84.71132336 -76.2156623 86.26785153 -74 88 C-70.70572075 86.50053496 -68.04897321 84.58154309 -65.1875 82.375 C-50.78934496 71.8620614 -31.21928766 62 -13 62 C-12.79246094 60.77152344 -12.58492187 59.54304688 -12.37109375 58.27734375 C-9.69190957 42.82200535 -6.28316003 27.57309458 -2.75683594 12.29443359 C-1.81641477 8.20087125 -0.90356719 4.10183722 0 0 Z M0 61 C-1.14397777 67.61948389 -2.28277539 74.23984387 -3.41796875 80.86083984 C-3.80479501 83.11332396 -4.19280855 85.36560452 -4.58203125 87.61767578 C-5.14114326 90.8539644 -5.69598749 94.09096002 -6.25 97.328125 C-6.51248535 98.83925873 -6.51248535 98.83925873 -6.78027344 100.38092041 C-6.94043945 101.32159363 -7.10060547 102.26226685 -7.265625 103.23144531 C-7.40774414 104.05751282 -7.54986328 104.88358032 -7.69628906 105.73468018 C-8.08858724 108.27982328 -8.08858724 108.27982328 -8 112 C-8.77085937 111.57847656 -9.54171875 111.15695313 -10.3359375 110.72265625 C-11.33882813 110.17480469 -12.34171875 109.62695312 -13.375 109.0625 C-14.37273437 108.51722656 -15.37046875 107.97195312 -16.3984375 107.41015625 C-17.92070346 106.5850241 -19.45128783 105.77435609 -21 105 C-20.35901851 101.54074898 -19.71139409 98.08277476 -19.0625 94.625 C-18.88009766 93.64015625 -18.69769531 92.6553125 -18.50976562 91.640625 C-18.24389648 90.22910156 -18.24389648 90.22910156 -17.97265625 88.7890625 C-17.72914429 87.48509521 -17.72914429 87.48509521 -17.48071289 86.15478516 C-17 84 -17 84 -16 82 C-15.960008 80.00039988 -15.95653201 77.99952758 -16 76 C-33.28749797 80.26124699 -50.42479569 87.16590406 -64 99 C-64 99.66 -64 100.32 -64 101 C-64.598125 101.268125 -65.19625 101.53625 -65.8125 101.8125 C-67.99847854 102.99917406 -69.41332594 104.09599113 -71 106 C-71 106.66 -71 107.32 -71 108 C-71.66 108 -72.32 108 -73 108 C-83.85589783 121.57901025 -96 140.95229917 -96 159 C-89.69313101 158.54437068 -83.56915724 157.843552 -77.38671875 156.5 C-74.60307849 155.91684787 -71.80734425 155.4537122 -69 155 C-68.0204042 156.79143207 -67.0413367 158.58315304 -66.0625 160.375 C-65.51722656 161.37273437 -64.97195312 162.37046875 -64.41015625 163.3984375 C-63.5850241 164.92070346 -62.77435609 166.45128783 -62 168 C-62.75498779 168.04825928 -63.50997559 168.09651855 -64.2878418 168.14624023 C-73.18223984 168.76659166 -81.98466905 169.84387202 -90.8125 171.0625 C-92.19852115 171.25099368 -93.58458871 171.43914645 -94.97070312 171.62695312 C-98.31427122 172.08130558 -101.65733725 172.53904248 -105 173 C-105 173.66 -105 174.32 -105 175 C-104.23436234 175.11639832 -103.46872467 175.23279663 -102.67988586 175.35272217 C-95.45330889 176.45422238 -88.22929974 177.57080569 -81.00767231 178.70426559 C-77.29515324 179.28641622 -73.58192727 179.86275965 -69.86645508 180.42578125 C-66.27862286 180.96968104 -62.69348192 181.5288994 -59.10967064 182.09867096 C-57.74423609 182.3130166 -56.37793131 182.52189479 -55.0107975 182.72512054 C-53.09130329 183.01142546 -51.17505906 183.3192657 -49.2590332 183.62792969 C-48.16871292 183.79669617 -47.07839264 183.96546265 -45.95503235 184.13934326 C-42.55585846 185.12935676 -40.66383481 186.71724851 -38 189 C-37.34 189 -36.68 189 -36 189 C-36 189.66 -36 190.32 -36 191 C-32.94441577 194.02517909 -32.94441577 194.02517909 -29 195 C-29 195.66 -29 196.32 -29 197 C-28.34 197 -27.68 197 -27 197 C-27 197.66 -27 198.32 -27 199 C-26.34 199 -25.68 199 -25 199 C-25 199.66 -25 200.32 -25 201 C-23.68 201.33 -22.36 201.66 -21 202 C-21 202.66 -21 203.32 -21 204 C-19.39318359 205.03253906 -19.39318359 205.03253906 -17.75390625 206.0859375 C-11.78750579 211.06619328 -11.32897862 219.38298205 -9.9375 226.625 C-9.60674022 228.23404473 -9.27321653 229.84252363 -8.93701172 231.45043945 C-8.09274452 235.51330383 -7.2773994 239.58136077 -6.46929932 243.65155029 C-5.47996185 248.60235505 -4.44760934 253.54415875 -3.40454102 258.48388672 C-2.89299122 260.91426892 -2.39182003 263.34686359 -1.90209961 265.78173828 C-1.56770874 267.39604736 -1.56770874 267.39604736 -1.2265625 269.04296875 C-1.03658691 269.98164795 -0.84661133 270.92032715 -0.65087891 271.88745117 C-0.43608887 272.58459229 -0.22129883 273.2817334 0 274 C0.66 274.33 1.32 274.66 2 275 C3.25272579 269.25059038 4.50212292 263.50046383 5.75 257.75 C5.93396332 256.90320679 6.11792664 256.05641357 6.3074646 255.18395996 C9.6831307 239.6397789 9.6831307 239.6397789 12.71972656 224.02636719 C15.2835241 210.52030723 15.2835241 210.52030723 19.1875 207.0625 C19.785625 206.711875 20.38375 206.36125 21 206 C21 205.34 21 204.68 21 204 C23 203 25 202 27 201 C27 200.34 27 199.68 27 199 C27.66 199 28.32 199 29 199 C29 198.34 29 197.68 29 197 C29.556875 196.7525 30.11375 196.505 30.6875 196.25 C33.42410913 194.77075182 35.67650869 193.06532561 38 191 C38 190.34 38 189.68 38 189 C46.31977861 184.69849036 54.8923955 183.17943852 64.09375 181.80859375 C66.61198149 181.41733265 69.13021059 181.02605617 71.6484375 180.63476562 C74.93085129 180.13295481 78.21349857 179.63273672 81.49645996 179.13452148 C85.98877323 178.45231166 90.47893647 177.7570376 94.96875 177.05859375 C96.7560553 176.79289833 96.7560553 176.79289833 98.57946777 176.52183533 C99.67150513 176.3514827 100.76354248 176.18113007 101.88867188 176.00561523 C102.8541394 175.85922104 103.81960693 175.71282684 104.81433105 175.56199646 C105.53560181 175.37653763 106.25687256 175.1910788 107 175 C107.33 174.34 107.66 173.68 108 173 C102.68031945 172.28374995 97.36008821 171.57179423 92.03930664 170.86376953 C90.23023046 170.6224298 88.42130888 170.37992813 86.61254883 170.13623047 C84.00902684 169.78566004 81.40497303 169.43930528 78.80078125 169.09375 C77.99538406 168.9843811 77.18998688 168.87501221 76.36018372 168.7623291 C72.54389841 168.25993691 68.8599551 167.86468168 65 168 C65.92512666 166.01501949 66.86550237 164.03713982 67.8125 162.0625 C68.59560547 160.40927734 68.59560547 160.40927734 69.39453125 158.72265625 C71 156 71 156 74 155 C76.20182222 155.38367253 78.38886818 155.85485539 80.5625 156.375 C86.38181929 157.6983966 92.04913948 158.60236185 98 159 C96.91318481 141.2486853 86.83430916 121.13977252 75 108 C74.34 108 73.68 108 73 108 C72.731875 107.401875 72.46375 106.80375 72.1875 106.1875 C71.00082594 104.00152146 69.90400887 102.58667406 68 101 C67.34 101 66.68 101 66 101 C66 100.34 66 99.68 66 99 C53.7977043 88.7154765 34.41215389 77 18 77 C17.58911949 82.06752629 18.80660376 86.22639827 20.19921875 91.03125 C21.44030523 95.6323511 22.22742716 100.30093931 23 105 C21.39805929 105.98280415 19.79336258 106.96111717 18.1875 107.9375 C17.29417969 108.48277344 16.40085937 109.02804688 15.48046875 109.58984375 C13 111 13 111 10 112 C9.83564453 110.69554932 9.83564453 110.69554932 9.66796875 109.36474609 C8.43973297 99.86464192 6.99801428 90.41377831 5.39550781 80.96972656 C4.99242163 78.58007246 4.60179217 76.18855644 4.2109375 73.796875 C3.95388456 72.27330915 3.69610108 70.74986634 3.4375 69.2265625 C3.322854 68.51319733 3.20820801 67.79983215 3.09008789 67.06484985 C2.79397412 65.36348291 2.40553084 63.6786535 2 62 C1.01 61.505 1.01 61.505 0 61 Z M-96 189 C-90.5649822 215.24541493 -77.594294 239.61598964 -55 255 C-42.7929074 262.81679237 -28.76149435 270.47280377 -14 271 C-14.62697412 264.63429334 -15.61339006 258.45504475 -16.875 252.1875 C-18.47924885 244.04071851 -19.84040509 235.88840354 -20.96044922 227.66088867 C-21.62194925 222.94929818 -22.58226502 218.54402238 -24 214 C-29.3566398 215.47769374 -33.51738926 218.00804498 -38.125 221 C-39.52241728 221.89742394 -40.92082427 222.79330903 -42.3203125 223.6875 C-42.93148926 224.08324219 -43.54266602 224.47898437 -44.17236328 224.88671875 C-46.06768297 226.0412282 -48.00264748 227.03465887 -50 228 C-47.80136736 221.40410209 -44.66596198 215.88659691 -41 210 C-38.13955172 205.77516812 -38.13955172 205.77516812 -37 201 C-52.80084838 197.47771969 -52.80084838 197.47771969 -68.6875 194.375 C-74.2537938 193.36607342 -79.69999203 192.14088453 -85.15625 190.6484375 C-88.75888321 189.82695795 -92.3284737 189.41579251 -96 189 Z M85.5390625 191.35546875 C79.11090595 193.00988868 72.64887598 194.2875081 66.125 195.5 C57.0538622 197.21303507 48.00969123 198.98510542 39 201 C40.22099096 205.00601319 41.65548421 208.38972476 43.875 211.9375 C44.40222656 212.79472656 44.92945313 213.65195312 45.47265625 214.53515625 C46.22869141 215.75525391 46.22869141 215.75525391 47 217 C49.17431682 220.59205318 51.09569191 223.86346201 52 228 C35.46543996 218.87048832 35.46543996 218.87048832 28.50390625 213.99609375 C27.16169248 212.90796682 27.16169248 212.90796682 26 213 C23.49986329 224.87215754 21.30264436 236.78276218 19.3125 248.75 C19.09827393 250.03406738 18.88404785 251.31813477 18.66333008 252.64111328 C17.65683696 258.75067493 16.70332624 264.8478276 16 271 C37.59133307 270.22888096 59.08153158 255.56952498 73.5625 240.56640625 C77.46877709 236.8174333 77.46877709 236.8174333 79 232 C79.66 232 80.32 232 81 232 C81 231.01 81 230.02 81 229 C81.66 229 82.32 229 83 229 C90.26750962 216.60399955 95.28723815 204.11112086 98 190 C93.52527739 189.69490528 89.87774929 190.19467651 85.5390625 191.35546875 Z "
            fill="#212020"
            transform="translate(249,77)"
    />
    <path
            d="M0 0 C10.49052928 3.51848197 17.18184971 11.75261546 24 20 C24.78503906 19.11957031 25.57007813 18.23914063 26.37890625 17.33203125 C27.43974882 16.15853283 28.50096694 14.98537384 29.5625 13.8125 C30.07619141 13.23435547 30.58988281 12.65621094 31.11914062 12.06054688 C37.17381478 5.40416597 43.08948948 0.66528258 52.296875 -0.37109375 C61.4965204 -0.54801001 67.98380413 0.6410321 75.02734375 6.76171875 C80.89451746 12.87697592 84.12524802 19.95118106 84.5 28.4375 C84.04737717 38.78942219 79.66958062 46.35953106 73 54 C72.43023437 54.68964844 71.86046875 55.37929687 71.2734375 56.08984375 C67.23394432 60.89481166 62.79575881 64.96592053 58 69 C57.34257812 69.58394531 56.68515625 70.16789062 56.0078125 70.76953125 C55.38648438 71.31996094 54.76515625 71.87039063 54.125 72.4375 C53.57070313 72.93121094 53.01640625 73.42492187 52.4453125 73.93359375 C51 75 51 75 49 75 C49 75.66 49 76.32 49 77 C48.34 77 47.68 77 47 77 C47 77.66 47 78.32 47 79 C44.91796875 80.91015625 44.91796875 80.91015625 42.1875 83.0625 C41.29417969 83.77535156 40.40085937 84.48820312 39.48046875 85.22265625 C37 87 37 87 34 88 C34 88.66 34 89.32 34 90 C32.03125 91.7265625 32.03125 91.7265625 29.5 93.625 C28.6646875 94.25664062 27.829375 94.88828125 26.96875 95.5390625 C26.3190625 96.02117187 25.669375 96.50328125 25 97 C19.99252786 94.33978043 16.05752297 91.49818958 12 87.5625 C8.72686383 84.46020307 5.49064711 81.47688238 1.75 78.9375 C0.38875 77.9784375 0.38875 77.9784375 -1 77 C-1 76.34 -1 75.68 -1 75 C-1.66 75 -2.32 75 -3 75 C-3 74.34 -3 73.68 -3 73 C-3.88171875 72.59394531 -3.88171875 72.59394531 -4.78125 72.1796875 C-8.71142629 70.09005152 -11.75419386 67.0143386 -15 64 C-15.97066406 63.10667969 -16.94132812 62.21335938 -17.94140625 61.29296875 C-26.85087087 52.88120042 -34.3224863 44.19421778 -35.16796875 31.47265625 C-35.24510324 21.95426076 -32.89926352 14.53157652 -26.6875 7.3125 C-18.43937846 0.21527914 -10.60851876 -1.07546991 0 0 Z "
            fill="#151515"
            transform="translate(226,192)"
    />
    <path
            d="M0 0 C0 3 0 3 -2 6 C-0.02 5.67 1.96 5.34 4 5 C7.25275521 10.16614063 10.45457666 15.35769872 13.57421875 20.60546875 C14.46076674 22.09438359 15.35742769 23.57738319 16.26953125 25.05078125 C18.31111436 28.41975409 19 29.94161093 19 34 C12.99704967 32.44513746 8.26425427 29.21087137 3.125 25.875 C2.24585938 25.31167969 1.36671875 24.74835938 0.4609375 24.16796875 C-1.69650085 22.78439416 -3.84992109 21.39497273 -6 20 C-8.08216925 26.56960299 -8.96394189 33.15003905 -9.85546875 39.96875 C-9.97535156 40.82984375 -10.09523438 41.6909375 -10.21875 42.578125 C-10.32123047 43.35575195 -10.42371094 44.13337891 -10.52929688 44.93457031 C-11 47 -11 47 -13 50 C-13.99 49.34 -14.98 48.68 -16 48 C-16 47.01 -16 46.02 -16 45 C-18.64 45.99 -21.28 46.98 -24 48 C-23.66365781 40.48835786 -22.3541197 33.3751935 -20.6875 26.0625 C-20.38646362 24.67671753 -20.38646362 24.67671753 -20.0793457 23.26293945 C-18.09480466 14.86881524 -18.09480466 14.86881524 -14 12 C-13.34 12 -12.68 12 -12 12 C-12 11.34 -12 10.68 -12 10 C-8.53846154 7 -8.53846154 7 -6 7 C-6 6.34 -6 5.68 -6 5 C-5.34 5 -4.68 5 -4 5 C-4 4.34 -4 3.68 -4 3 C-2 1.375 -2 1.375 0 0 Z "
            fill="#222222"
            transform="translate(282,271)"
    />
    <path
            d="M0 0 C3.85025879 0.60355408 6.86101159 1.76772603 10.3125 3.5625 C11.19550781 4.01753906 12.07851563 4.47257813 12.98828125 4.94140625 C13.98408203 5.46541016 13.98408203 5.46541016 15 6 C14.01 6.495 14.01 6.495 13 7 C12.64984951 8.66321482 12.31802943 10.33034549 12 12 C11.01 13.485 11.01 13.485 10 15 C10.33 15.66 10.66 16.32 11 17 C10.34 17 9.68 17 9 17 C9 17.66 9 18.32 9 19 C5.61186187 18.29048402 2.69333713 17.02587325 -0.4375 15.5625 C-3.92520144 13.93749307 -7.41510916 12.3988231 -11 11 C-10.01 10.67 -9.02 10.34 -8 10 C-5.03817965 8.91640719 -3.24977792 8.24977792 -1 6 C-0.60235737 4.01178687 -0.26224651 2.01055661 0 0 Z "
            fill="#2B2A2B"
            transform="translate(292,147)"
    />
    <path
            d="M0 0 C4.12357938 4.85993284 8 9.44005979 8 16 C2.89115395 14.56952311 -1.01744261 12.28610306 -5.375 9.375 C-6.01566406 8.95476562 -6.65632813 8.53453125 -7.31640625 8.1015625 C-8.88155698 7.07370232 -10.44134314 6.03768114 -12 5 C-11.67 4.01 -11.34 3.02 -11 2 C-8 3 -8 3 -7 4 C-6.01 3.01 -5.02 2.02 -4 1 C-3.34 1.99 -2.68 2.98 -2 4 C-1.34 2.68 -0.68 1.36 0 0 Z "
            fill="#333232"
            transform="translate(293,289)"
    />
    <path
            d="M0 0 C6.08233706 0.67581523 12.01314152 1.73638028 18 3 C18.33 3.99 18.66 4.98 19 6 C15.23199864 6.86700138 11.46024104 7.71638259 7.6875 8.5625 C6.61564453 8.80935547 5.54378906 9.05621094 4.43945312 9.31054688 C3.41142578 9.53935547 2.38339844 9.76816406 1.32421875 10.00390625 C0.37635498 10.21861572 -0.57150879 10.4333252 -1.5480957 10.65454102 C-4 11 -4 11 -7 10 C-6.34 10 -5.68 10 -5 10 C-4.67 8.68 -4.34 7.36 -4 6 C-3.67 6.99 -3.34 7.98 -3 9 C-1.68 8.34 -0.36 7.68 1 7 C0.67 6.01 0.34 5.02 0 4 C0.99 4 1.98 4 3 4 C3 3.01 3 2.02 3 1 C2.01 0.67 1.02 0.34 0 0 Z M-3 5 C-2.34 5.66 -1.68 6.32 -1 7 C-1.66 7 -2.32 7 -3 7 C-3 6.34 -3 5.68 -3 5 Z "
            fill="#393738"
            transform="translate(399,246)"
    />
    <path
            d="M0 0 C0.66 0.33 1.32 0.66 2 1 C0.51481201 5.04301175 -1.42877998 8.61146256 -3.625 12.3125 C-4.25664062 13.38113281 -4.88828125 14.44976562 -5.5390625 15.55078125 C-6.02117187 16.35902344 -6.50328125 17.16726562 -7 18 C-7.33 17.34 -7.66 16.68 -8 16 C-10.02463255 15.34786708 -10.02463255 15.34786708 -12 15 C-11.34 14.01 -10.68 13.02 -10 12 C-10.33 11.01 -10.66 10.02 -11 9 C-11.66 8.67 -12.32 8.34 -13 8 C-10.880788 6.63594382 -8.75551882 5.28368225 -6.625 3.9375 C-6.02171875 3.54755859 -5.4184375 3.15761719 -4.796875 2.75585938 C-3.23507443 1.77539568 -1.62007786 0.88083925 0 0 Z "
            fill="#363535"
            transform="translate(344,153)"
    />
    <path
            d="M0 0 C4.42323682 0.58265272 7.5155864 2.26766211 11.3125 4.5625 C12.38113281 5.20316406 13.44976562 5.84382812 14.55078125 6.50390625 C15.35902344 6.99761719 16.16726562 7.49132812 17 8 C15.02 8.99 15.02 8.99 13 10 C13 10.66 13 11.32 13 12 C12.360625 12.103125 11.72125 12.20625 11.0625 12.3125 C10.381875 12.539375 9.70125 12.76625 9 13 C8.67 13.99 8.34 14.98 8 16 C1.48063781 5.62642369 1.48063781 5.62642369 0 0 Z "
            fill="#444444"
            transform="translate(154,154)"
    />
    <path
            d="M0 0 C0.99 0.33 1.98 0.66 3 1 C3.66 5.95 4.32 10.9 5 16 C3.02 16 1.04 16 -1 16 C-1.99 18.97 -2.98 21.94 -4 25 C-5.05479146 20.78083415 -4.80797358 19.37488052 -3.6875 15.3125 C-2.32731543 10.22740631 -1.11457028 5.14417051 0 0 Z "
            fill="#403D3E"
            transform="translate(249,77)"
    />
    <path
            d="M0 0 C0.33 0.66 0.66 1.32 1 2 C1.99 2.33 2.98 2.66 4 3 C4 4.32 4 5.64 4 7 C5.32 6.34 6.64 5.68 8 5 C8.21824777 11.0018137 7.5056904 16.19233704 6 22 C5.34 22 4.68 22 4 22 C2.19889833 14.67098882 0.6377902 7.52592433 0 0 Z "
            fill="#201D1F"
            transform="translate(245,400)"
    />
    <path
            d="M0 0 C0.99 0.33 1.98 0.66 3 1 C2.67 2.65 2.34 4.3 2 6 C3.32 6 4.64 6 6 6 C6.66 4.68 7.32 3.36 8 2 C8.33 3.32 8.66 4.64 9 6 C7.25447936 7.15264553 5.50339804 8.29687327 3.75 9.4375 C2.28820312 10.39462891 2.28820312 10.39462891 0.796875 11.37109375 C-1.58381615 12.7576136 -3.31780307 13.546581 -6 14 C-6.33 13.34 -6.66 12.68 -7 12 C-5.56640625 9.1796875 -5.56640625 9.1796875 -3.5625 5.875 C-2.57443359 4.23144531 -2.57443359 4.23144531 -1.56640625 2.5546875 C-1.04949219 1.71164062 -0.53257812 0.86859375 0 0 Z "
            fill="#4A4849"
            transform="translate(161,334)"
    />
    <path
            d="M0 0 C0.66 0.66 1.32 1.32 2 2 C1.625 4.125 1.625 4.125 1 6 C-0.41702513 5.85769192 -1.8336096 5.71099254 -3.25 5.5625 C-4.43335937 5.44068359 -4.43335937 5.44068359 -5.640625 5.31640625 C-7.82364639 5.02365007 -9.8773182 4.57935581 -12 4 C-12 3.34 -12 2.68 -12 2 C-8.07925671 -0.61382886 -4.55488983 -0.29386386 0 0 Z "
            fill="#292526"
            transform="translate(94,248)"
    />
    <path
            d="M0 0 C0.33 0.66 0.66 1.32 1 2 C1.66 2.33 2.32 2.66 3 3 C4.125 5.0625 4.125 5.0625 5 7 C3.71186658 7.83878455 2.41936744 8.67086783 1.125 9.5 C0.40570313 9.9640625 -0.31359375 10.428125 -1.0546875 10.90625 C-3 12 -3 12 -5 12 C-4.42365861 7.24518354 -2.44931479 4.02951788 0 0 Z "
            fill="#5C5A5B"
            transform="translate(204,293)"
    />
    <path
            d="M0 0 C0.66 0.33 1.32 0.66 2 1 C0.66511872 4.59391114 -0.96022723 7.75490696 -3 11 C-4.5 9.625 -4.5 9.625 -6 8 C-6 7.34 -6 6.68 -6 6 C-6.66 5.67 -7.32 5.34 -8 5 C-6.71475739 4.13619741 -5.42157581 3.28419631 -4.125 2.4375 C-3.04605469 1.72400391 -3.04605469 1.72400391 -1.9453125 0.99609375 C-1.30335938 0.66738281 -0.66140625 0.33867187 0 0 Z "
            fill="#626062"
            transform="translate(344,153)"
    />
    <path
            d="M0 0 C3.465 1.485 3.465 1.485 7 3 C7 3.99 7 4.98 7 6 C5.68 6.33 4.36 6.66 3 7 C3 6.01 3 5.02 3 4 C2.01 4.66 1.02 5.32 0 6 C-2.1875 5.625 -2.1875 5.625 -4 5 C-2.68 3.35 -1.36 1.7 0 0 Z "
            fill="#0E0E0E"
            transform="translate(283,272)"
    />
    <path
            d="M0 0 C0.33 0 0.66 0 1 0 C1.66 3.63 2.32 7.26 3 11 C0.525 12.485 0.525 12.485 -2 14 C-2.99 12.68 -3.98 11.36 -5 10 C-4.360625 9.649375 -3.72125 9.29875 -3.0625 8.9375 C-0.17836168 6.22815794 -0.2899178 3.84141089 0 0 Z "
            fill="#514F4F"
            transform="translate(270,171)"
    />
    <path
            d="M0 0 C3.19174026 1.59587013 4.63788802 4.80631026 6 8 C6 9.32 6 10.64 6 12 C3.97954558 11.39816251 1.97888961 10.72693904 0 10 C-0.33 9.34 -0.66 8.68 -1 8 C-0.34 7.67 0.32 7.34 1 7 C0.67 4.69 0.34 2.38 0 0 Z "
            fill="#7F7D7D"
            transform="translate(295,293)"
    />
    <path
            d="M0 0 C-1.74122549 1.03572896 -3.49336595 2.0531252 -5.25 3.0625 C-6.71179688 3.91521484 -6.71179688 3.91521484 -8.203125 4.78515625 C-11 6 -11 6 -13.359375 5.68359375 C-13.90078125 5.45800781 -14.4421875 5.23242188 -15 5 C-13.54341873 2.08683746 -11.63839986 1.90792226 -8.625 0.8125 C-7.15933594 0.26529297 -7.15933594 0.26529297 -5.6640625 -0.29296875 C-3 -1 -3 -1 0 0 Z "
            fill="#5C5C5C"
            transform="translate(209,162)"
    />
    <path
            d="M0 0 C2.91589609 4.37384413 4.30254716 7.70542471 4 13 C3.01 12.67 2.02 12.34 1 12 C0.36605303 7.95858806 -0.12404452 4.0934693 0 0 Z "
            fill="#3D3B3C"
            transform="translate(352,205)"
    />
    <path
            d="M0 0 C0.99 0.33 1.98 0.66 3 1 C2.67 1.99 2.34 2.98 2 4 C2.66 4.66 3.32 5.32 4 6 C2.02 6.66 0.04 7.32 -2 8 C-1.47731534 5.23723823 -0.89130413 2.6739124 0 0 Z "
            fill="#383437"
            transform="translate(164,328)"
    />
    <path
            d="M0 0 C0.33 1.32 0.66 2.64 1 4 C1.99 3.67 2.98 3.34 4 3 C4.66 3.33 5.32 3.66 6 4 C5.42655063 6.86724686 5.1385485 7.8614515 3 10 C0.59185923 6.48812804 -0.36629408 4.27343092 0 0 Z "
            fill="#424142"
            transform="translate(192,227)"
    />
    <path
            d="M0 0 C0.33 1.32 0.66 2.64 1 4 C-0.875 5.0625 -0.875 5.0625 -3 6 C-5 5 -5 5 -7 2 C-4.69 1.34 -2.38 0.68 0 0 Z "
            fill="#0B0B0B"
            transform="translate(278,346)"
    />
    <path
            d="M0 0 C0.33 0.66 0.66 1.32 1 2 C1.99 2.33 2.98 2.66 4 3 C3.67 6.3 3.34 9.6 3 13 C1.26315467 9.52630934 0.69915888 7.92380063 0.375 4.25 C0.30023438 3.45078125 0.22546875 2.6515625 0.1484375 1.828125 C0.09945312 1.22484375 0.05046875 0.6215625 0 0 Z "
            fill="#615F60"
            transform="translate(245,400)"
    />
    <path
            d="M0 0 C0.99 0.33 1.98 0.66 3 1 C2.525625 1.598125 2.05125 2.19625 1.5625 2.8125 C-0.16465744 5.00382924 -0.16465744 5.00382924 -1 8 C-3.0625 8.6875 -3.0625 8.6875 -5 9 C-3.7508258 5.54074837 -2.32472205 2.85306797 0 0 Z "
            fill="#4B4A4B"
            transform="translate(199,199)"
    />
    <path
            d="M0 0 C-1.32 1.32 -2.64 2.64 -4 4 C-3.01 4.33 -2.02 4.66 -1 5 C-3.64 4.67 -6.28 4.34 -9 4 C-9 3.34 -9 2.68 -9 2 C-5.86501708 0.14223235 -3.62528568 -0.20140476 0 0 Z "
            fill="#6C696A"
            transform="translate(91,248)"
    />
    <path
            d="M0 0 C4.75 0.75 4.75 0.75 7 3 C6.01 3.495 6.01 3.495 5 4 C4.01 5.485 4.01 5.485 3 7 C0 2.25 0 2.25 0 0 Z "
            fill="#7E7E7E"
            transform="translate(154,154)"
    />
    <path
            d="M0 0 C1.32 0 2.64 0 4 0 C3.67 2.31 3.34 4.62 3 7 C2.34 7 1.68 7 1 7 C0.67 4.69 0.34 2.38 0 0 Z "
            fill="#808080"
            transform="translate(248,415)"
    />
    <path
            d="M0 0 C0.33 0 0.66 0 1 0 C2.38766322 6.05525768 1.49118146 9.32010626 -1 15 C-2.20220203 11.46905698 -1.79532349 8.87101018 -1.0625 5.25 C-0.86785156 4.26515625 -0.67320312 3.2803125 -0.47265625 2.265625 C-0.31667969 1.51796875 -0.16070312 0.7703125 0 0 Z "
            fill="#7A7879"
            transform="translate(260,304)"
    />
    <path
            d="M0 0 C0.33 0.66 0.66 1.32 1 2 C1.66 2 2.32 2 3 2 C2.67 2.99 2.34 3.98 2 5 C-0.5625 6.1875 -0.5625 6.1875 -3 7 C-1.125 1.125 -1.125 1.125 0 0 Z "
            fill="#535051"
            transform="translate(210,282)"
    />
    <path
            d="M0 0 C3 3.75 3 3.75 3 6 C-0.68754757 5.50168276 -2.60490662 4.89932357 -5 2 C-3.68 2 -2.36 2 -1 2 C-0.67 1.34 -0.34 0.68 0 0 Z "
            fill="#898989"
            transform="translate(343,342)"
    />
    <path
            d="M0 0 C-1.65 1.65 -3.3 3.3 -5 5 C-5.33 4.01 -5.66 3.02 -6 2 C-8.31 2 -10.62 2 -13 2 C-13 1.67 -13 1.34 -13 1 C-8.61414671 0.29826347 -4.44209357 -0.10834375 0 0 Z "
            fill="#706F70"
            transform="translate(330,256)"
    />
    <path
            d="M0 0 C0.99 0 1.98 0 3 0 C1.77263971 4.15414253 0.672336 6.43688534 -2 10 C-1.34 6.7 -0.68 3.4 0 0 Z "
            fill="#727272"
            transform="translate(163,199)"
    />
    <path
            d="M0 0 C0.96516243 3.00272755 1.22393475 5.04215769 0 8 C-0.99 8.33 -1.98 8.66 -3 9 C-3.33 8.34 -3.66 7.68 -4 7 C-3.22265625 5.2734375 -3.22265625 5.2734375 -2.0625 3.375 C-1.381875 2.26125 -0.70125 1.1475 0 0 Z "
            fill="#706D6F"
            transform="translate(158,339)"
    />
    <path
            d="M0 0 C0.33 0 0.66 0 1 0 C1.21278058 4.46839215 0.59138085 7.82262526 -1 12 C-3 9 -3 9 -2.75 6.5625 C-2.05282249 4.18047686 -1.20252143 2.16453858 0 0 Z "
            fill="#6B6B6B"
            transform="translate(358,273)"
    />
    <path
            d="M0 0 C1.67542976 0.28604898 3.34385343 0.61781233 5 1 C4.01 1.33 3.02 1.66 2 2 C2 2.66 2 3.32 2 4 C0.35 4.66 -1.3 5.32 -3 6 C-1.125 1.125 -1.125 1.125 0 0 Z "
            fill="#5C5B5C"
            transform="translate(321,231)"
    />
    <path
            d="M0 0 C0 2.31 0 4.62 0 7 C-1.65 5.68 -3.3 4.36 -5 3 C-1.125 0 -1.125 0 0 0 Z "
            fill="#434343"
            transform="translate(222,258)"
    />
    <path
            d="M0 0 C0.66 0 1.32 0 2 0 C3.98362069 2.91708924 3.9876191 4.12380904 3.625 7.75 C3.41875 8.8225 3.2125 9.895 3 11 C2.67 11 2.34 11 2 11 C0.80712589 7.12315913 0 4.08378077 0 0 Z "
            fill="#949192"
            transform="translate(249,134)"
    />
    <path
            d="M0 0 C0.99 0.33 1.98 0.66 3 1 C3 2.65 3 4.3 3 6 C1.68 6 0.36 6 -1 6 C-0.67 4.02 -0.34 2.04 0 0 Z "
            fill="#898788"
            transform="translate(249,77)"
    />
    <path
            d="M0 0 C0.66 0.66 1.32 1.32 2 2 C1.625 4.125 1.625 4.125 1 6 C-0.32 5.34 -1.64 4.68 -3 4 C-3 3.34 -3 2.68 -3 2 C-2.01 1.34 -1.02 0.68 0 0 Z "
            fill="#373536"
            transform="translate(152,296)"
    />
    <path
            d="M0 0 C2.64 0.33 5.28 0.66 8 1 C8.33 1.99 8.66 2.98 9 4 C7.35 3.67 5.7 3.34 4 3 C4 2.34 4 1.68 4 1 C2.68 0.67 1.36 0.34 0 0 Z "
            fill="#726F72"
            transform="translate(409,248)"
    />
    <path
            d="M0 0 C2 3 2 3 3 6 C1.35 6 -0.3 6 -2 6 C-1.125 1.125 -1.125 1.125 0 0 Z "
            fill="#4F4F4F"
            transform="translate(316,239)"
    />
    <path
            d="M0 0 C-1.15173355 2.46800047 -2.04783565 4.04783565 -4 6 C-6.125 5.625 -6.125 5.625 -8 5 C-2.25 0 -2.25 0 0 0 Z "
            fill="#757475"
            transform="translate(187,158)"
    />
    <path
            d="M0 0 C0.33 0.66 0.66 1.32 1 2 C1.66 2 2.32 2 3 2 C1.74821404 4.50357192 0.00018842 6.06433379 -2 8 C-2 6.02 -2 4.04 -2 2 C-1.34 2 -0.68 2 0 2 C0 1.34 0 0.68 0 0 Z "
            fill="#131011"
            transform="translate(243,116)"
    />
    <path
            d="M0 0 C0 1.65 0 3.3 0 5 C-1.65 5 -3.3 5 -5 5 C-4.6875 3.0625 -4.6875 3.0625 -4 1 C-1 0 -1 0 0 0 Z "
            fill="#100E0F"
            transform="translate(253,405)"
    />
    <path
            d="M0 0 C2 2 2 2 2 4 C0.02 4.99 0.02 4.99 -2 6 C-2.66 5.34 -3.32 4.68 -4 4 C-3.34 4 -2.68 4 -2 4 C-2 3.01 -2 2.02 -2 1 C-1.34 0.67 -0.68 0.34 0 0 Z "
            fill="#0D0D0D"
            transform="translate(189,337)"
    />
    <path
            d="M0 0 C0.66 0 1.32 0 2 0 C1.40072174 3.35595828 0.15377564 5.37801226 -2 8 C-2.6875 6.25 -2.6875 6.25 -3 4 C-1.6875 1.75 -1.6875 1.75 0 0 Z "
            fill="#686767"
            transform="translate(345,305)"
    />
    <path
            d="M0 0 C0.99 0.66 1.98 1.32 3 2 C2.25 3.9375 2.25 3.9375 1 6 C-1.125 6.75 -1.125 6.75 -3 7 C-3 5 -3 5 -1 3 C-0.67 2.01 -0.34 1.02 0 0 Z "
            fill="#0F0E0F"
            transform="translate(158,301)"
    />
    <path
            d="M0 0 C1.32 0.66 2.64 1.32 4 2 C3.34 2 2.68 2 2 2 C2 2.66 2 3.32 2 4 C0.02 4.99 0.02 4.99 -2 6 C-1.125 1.125 -1.125 1.125 0 0 Z "
            fill="#545454"
            transform="translate(271,267)"
    />
    <path
            d="M0 0 C2.475 0.495 2.475 0.495 5 1 C3.02 1.99 3.02 1.99 1 3 C0.67 2.01 0.34 1.02 0 0 Z M-3 3 C-1.68 3.33 -0.36 3.66 1 4 C-0.98 4.99 -0.98 4.99 -3 6 C-3 5.01 -3 4.02 -3 3 Z "
            fill="#353535"
            transform="translate(166,161)"
    />
</svg>
