<svg xmlns="http://www.w3.org/2000/svg" width="1024" height="1024">
    <path d="M0 0h1024v1024H0V0z" fill="#fefefe"/>
    <g fill="#64c8d4">
        <path d="M372.441 255.462l12.313-.022 24.053-.013 19.572-.001 2.825-.003 5.684-.006 53.176.009 48.521-.029 49.968-.031 5.665.003 2.814.001 19.515-.022 23.831.005 12.129-.004c35.322-.152 63.73 6.226 89.491 31.65 10.076 10.057 17.511 23.519 22 37l1.017 3.013c4.155 14.635 3.555 29.634 3.506 44.709l.016 12.487.002 24.396-.006 19.844.002 2.863.004 5.759-.023 53.888.004 46.146.018 53.708-.004 5.737-.002 2.851.012 19.799-.013 24.158-.001 12.304c.092 30.997-4.073 58.657-26.234 82.041-18.726 18.726-41.334 30.345-68.151 30.445l-3.971-.001-4.251.011-11.655.016-12.582.022-30.372.039-14.321.015-47.636.039-12.353.006-3.101.001-49.695.066-51.079.054-28.655.036-24.412.02a2143.53 2143.53 0 0 0-12.438.017c-31.935.142-31.935.142-45.627-4.49l-2.549-.833C296.092 754.795 276.115 735.952 265 714c-9.296-19.989-9.594-40.074-9.523-61.654l-.016-12.405-.002-24.231.006-19.711-.002-2.845-.004-5.723.023-53.536-.004-45.835-.018-53.358.004-5.701.002-2.832-.012-19.664.013-23.997.001-12.219c-.101-33.524 5.49-61.736 29.566-86.386 24.654-24.464 54.3-28.532 87.406-28.44z"/>
        <path d="M372.441 255.462l12.313-.022 24.053-.013 19.572-.001 2.825-.003 5.684-.006 53.176.009 48.521-.029 49.968-.031 5.665.003 2.814.001 19.515-.022 23.831.005 12.129-.004c35.322-.152 63.73 6.226 89.491 31.65 10.076 10.057 17.511 23.519 22 37l1.017 3.013c4.155 14.635 3.555 29.634 3.506 44.709l.016 12.487.002 24.396-.006 19.844.002 2.863.004 5.759-.023 53.888.004 46.146.018 53.708-.004 5.737-.002 2.851.012 19.799-.013 24.158-.001 12.304c.092 30.997-4.073 58.657-26.234 82.041-18.726 18.726-41.334 30.345-68.151 30.445l-3.971-.001-4.251.011-11.655.016-12.582.022-30.372.039-14.321.015-47.636.039-12.353.006-3.101.001-49.695.066-51.079.054-28.655.036-24.412.02a2143.53 2143.53 0 0 0-12.438.017c-31.935.142-31.935.142-45.627-4.49l-2.549-.833C296.092 754.795 276.115 735.952 265 714c-9.296-19.989-9.594-40.074-9.523-61.654l-.016-12.405-.002-24.231.006-19.711-.002-2.845-.004-5.723.023-53.536-.004-45.835-.018-53.358.004-5.701.002-2.832-.012-19.664.013-23.997.001-12.219c-.101-33.524 5.49-61.736 29.566-86.386 24.654-24.464 54.3-28.532 87.406-28.44zM465 304l-2.626.649C423.185 314.408 390.215 334.509 361 362l-1.996 1.867c-5.149 4.97-9.576 10.523-14.004 16.133l-2.187 2.742C325.625 404.902 313.85 430.17 306 457l-.675 2.301C290.742 510.676 300.148 567.378 325 614c8.169 14.462 18.087 27.522 29 40l1.388 1.6c5.5 6.31 11.202 12.006 17.807 17.189 2.948 2.324 5.774 4.76 8.617 7.211 6.367 5.301 13.092 9.738 20.188 14l1.842 1.121c28.356 17.114 62.151 28.901 95.486 29.083l2.615.021 8.306.026 2.863.002c13.51-.015 26.649-.299 39.887-3.252l2.451-.52c55.519-11.991 102.782-45.054 134.78-91.734 2.022-3.198 3.929-6.442 5.77-9.746l1.289-2.296C704.076 604.498 709.665 592.273 714 579l.808-2.416c17.905-54.039 11.708-111.039-13.292-161.674-4.817-9.518-10.123-18.354-16.516-26.91l-1.187-1.615c-6.1-8.289-12.704-15.949-19.813-23.385l-2.531-2.656C634.169 332.353 596.966 312.632 559 304l-2.555-.607c-28.496-6.516-63.123-6.893-91.445.607z"/>
    </g>
    <path d="M510.625 299.563l3.056.009c15.428.069 30.269.742 45.319 4.428l2.721.649C597.859 313.523 630.833 331.646 658 357l1.787 1.654C669.36 367.601 677.306 377.418 685 388l2.051 2.738c18.47 25.264 30.953 56.923 35.574 87.762l.378 2.499c5.099 34.498.817 68.049-10.003 101.001l-.646 2.027C705.826 604.242 694.969 623.259 682 640l-2.258 2.953C659.937 667.948 636.115 687.094 608 702l-1.948 1.049c-28.232 14.984-60.494 21.345-92.18 21.267a753.93 753.93 0 0 0-8.014.046c-50.142.182-98.272-20.954-135.362-54.033l-4.117-3.578c-4.119-3.556-7.873-7.216-11.379-11.379a254.97 254.97 0 0 0-4.75-5.461C314.029 609.06 296.271 553.214 299 499c3.515-53.282 26.675-99.613 63-138l1.934-2.062c37.554-38.905 93.349-59.717 146.691-59.375zM466 320l-2.906.748A204.38 204.38 0 0 0 425 335l-1.95.94c-18.236 8.872-35.027 21.455-49.05 36.06l-6.66 6.52c-10.76 10.142-19.077 22.829-26.306 35.648l-2.063 3.606C328.485 435.861 322.202 455.584 318 476l-.595 2.871c-1.704 9.417-1.743 18.79-1.72 28.328l-.046 8.305c-.065 17.48 1.819 34.446 7.049 51.184l1.04 3.42c4.538 16.068 4.538 16.068 13.273 29.893l2.125-2.16 2.875-2.902 1.387-1.412c2.715-2.734 5.503-5.322 8.426-7.834 4.627-4.006 8.899-8.329 13.188-12.691 4.932-5.016 9.903-9.869 15.24-14.454 2.301-2.021 4.402-4.201 6.51-6.421 15.489-15.536 35.09-25.394 57.25-25.562 14.512.247 27.737 4.052 41.426 8.568 16.41 5.312 32.451 5.219 49.529 5.25l9.342.08 2.851-.015c6.326.093 11.378 1.29 16.852 4.554 2.794 2.963 3.212 5.49 3.438 9.438-.198 4.579-1.204 7.172-4.437 10.563-9.51 5.934-20.723 5.146-31.539 5.211l-5.869.064-14.351.127-8.094.075-7.589.057c-10.192.126-10.192.126-18.558 5.467-.333 2.5-.333 2.5 0 5 1.92 2.364 1.92 2.364 5.313 2.188 3.484-.078 3.484-.078 6.026-.69 3.027-.565 5.85-.629 8.929-.639l3.774-.021 2.003-.006 6.261-.041 17.795-.116 10.91-.081 4.126-.015c11.785.015 21.563-1.805 30.675-9.578l1.757-1.437L580 566l1.812-1.536 8.872-7.616c2.976-2.57 6.009-5.062 9.066-7.535A237.13 237.13 0 0 0 610 540.5c5.173-4.705 10.534-9.14 16-13.5l2.262-1.828c5.583-4.381 10.262-6.597 17.57-6.441 3.906.486 7.515 1.849 11.168 3.27 1.082 4.663 1.636 7.675-.875 11.875-2.95 4.179-6.394 7.93-9.863 11.68-1.991 2.153-3.916 4.344-5.824 6.57-3.013 3.466-6.225 6.681-9.496 9.902-1.759 1.788-3.387 3.62-5.004 5.535C609.938 585.998 592.077 598.003 571 610l-1.789 1.019-11.494 6.479-3.749 2.105c-7.426 4.18-14.796 7.882-22.967 10.397l-1.813.581c-13.879 2.657-28.462-.667-42.062-3.331l-5.605-1.055-22.036-4.334-2.699-.555-4.997-1.051c-10.236-2.115-22.133-3.69-31.451 1.991-5.166 3.879-9.759 8.215-14.336 12.754l-2.782 2.756L383 658c8.807 18.906 41.731 31.717 60.375 38.688 21.644 7.793 42.931 11.87 65.979 11.704l7.935.019c42.059.052 82.827-15.432 115.711-41.41l2.59-1.969c37.948-29.673 65.459-76.523 71.682-124.486 5.559-54.49-5.848-107.893-40.897-151.045L660 382l-1.416-1.641c-5.161-5.943-10.53-11.341-16.584-16.359l-2.637-2.297C611.119 337.418 577.503 323.099 541 317l-2.683-.533c-4.313-.608-8.553-.668-12.903-.706l-2.805-.03c-28.548-.379-28.548-.379-56.609 4.268z"
          fill="#fafefe"/>
    <path d="M597 378c5.298 18.523 2.226 39.387-6.597 56.366-7.545 13.462-18.58 22.22-33.028 27.571-8.13 2.142-17.014 1.842-25.375 2.063-9.61 21.863-12.445 41.136-13 65h-10l-.113-3.121c-.693-16.098-2.75-30.304-9.887-44.879l-3.586-.113c-16.926-.652-30.458-4.005-42.414-16.887-2.333-3.185-4.207-6.486-6-10l-1.406-2.695c-6.127-12.504-5.848-24.688-5.594-38.305 20.334-.504 38.385.891 55.063 13.813 6.545 6.305 12.573 15.922 13.108 25.118-.025 4.481-.189 8.95-.375 13.427-.171 7.19.579 12.372 4.205 18.643 2.321-4.503 3.977-9.227 5.701-13.98 1.188-3.226 2.347-6.103 4.072-9.098 1.613-3.842.975-5.805-.086-9.797-3.458-14.716-2.423-27.784 4.938-41.25 10.805-16.772 28.918-25.51 47.923-29.64l2.639-.548 2.483-.521c5.824-1.119 11.407-1.358 17.33-1.167z"
          fill="#f6fdf8"/>
    <path d="M656 522c1.563 1.625 1.563 1.625 3 4-.181 8.318-6.418 13.715-11.703 19.484-1.993 2.183-3.934 4.398-5.859 6.641-2.933 3.373-6.035 6.521-9.25 9.625-1.899 1.953-3.682 3.949-5.465 6.008C610.413 586.51 592.457 598.786 571 611l-1.789 1.019-11.494 6.479-3.749 2.105c-7.426 4.18-14.796 7.882-22.967 10.397l-1.813.581c-13.879 2.657-28.462-.667-42.062-3.331l-5.605-1.055-22.036-4.334-2.699-.555-4.997-1.051c-10.235-2.115-22.128-3.689-31.448 1.987-5.164 3.88-9.763 8.22-14.34 12.758l-2.651 2.626L384 658l-2 2-8.062-7.75-2.338-2.211-2.197-2.148-2.047-1.968C366 644 366 644 366.064 641.962c1.149-2.41 2.436-3.568 4.506-5.251 2.858-2.389 5.649-4.803 8.359-7.359l1.954-1.844 1.991-1.883 4.223-3.961 6.773-6.391c11.796-10.985 23.93-18.045 40.32-17.687 9.344.557 18.515 3.329 27.557 5.602l11.951 2.871 21.437 5.266c23.761 5.608 41.459 1.923 62.847-9.28l8.02-4c12.731-6.26 25.337-12.55 35.996-22.044l1.452-1.29c5.881-5.247 11.594-10.629 17.024-16.347C622 557 622 557 624 557v-2c1.539-1.48 1.539-1.48 3.625-3.187 2.71-2.296 5.128-4.563 7.375-7.312 2.673-3.242 5.645-5.879 8.836-8.602 7.375-6.031 7.375-6.031 12.164-13.898z"
          fill="#d0edf0"/>
    <path d="M589 388c.395 21.364.395 21.364-2 29l-.965 3.098C581.625 432.793 574.756 442.246 563 449c-3.602 1.609-7.21 2.913-11 4l-1.957.594c-2.629.523-5.115.501-7.793.469l-2.984-.027L537 454c4.563-12.442 12.835-22.719 21.607-32.434 2.196-2.469 4.291-5.016 6.393-7.566-13.213 7.52-26.078 18.157-33 32h-2c-.545-14.402-.639-25.299 8.969-36.84C550.84 396.536 571.298 387.034 589 388z"
          fill="#a1d153"/>
    <path d="M634 612c.256 7.753-.416 14.953-1.875 22.563l-.527 2.979C630.26 644.74 630.26 644.74 628 647c-2.937.375-2.937.375-6 0-3.198-2.867-3.387-5.894-4-10l-2.895 2.379C607.686 645.43 600.313 651.204 592 656l-3.344 1.953c-9.786 5.55-20.015 9.456-30.656 13.047l-3.254 1.102c-4.075 1.3-7.429 2.14-11.746 1.898-1-1-1-1-1.098-3.285l.035-2.777.027-2.785L542 663l1.997-.639c17.891-5.705 17.891-5.705 35.003-13.361l2.727-1.352c5.507-2.841 10.598-6.137 15.648-9.711l1.767-1.247c2.803-2.029 5.193-4.028 7.647-6.499C609 628 609 628 611 628v-2l-1.898.07-2.477.055-2.461.07C602 626 602 626 600 624c-.312-3.5-.312-3.5 0-7 3.149-2.099 4.626-2.404 8.297-2.852l3.156-.391 3.297-.383 3.25-.406c5.37-.648 10.591-1.139 16-.969z"
          fill="#b8e8ea"/>
    <path d="M450 422c14.099-.736 27.123 3.419 38.492 11.848 5.885 5.408 10.04 12.253 10.809 20.301A86.07 86.07 0 0 1 499 462l-2.875-2.5c-9.99-8.568-9.99-8.568-21.125-15.5l-1 1 1.328 1.188c4.948 4.666 9.094 9.767 13.172 15.188l1.638 2.164 1.519 2.047 1.369 1.845C494 469 494 469 494 471c-10.474.729-19.646-1.355-28-8l-1.668-1.316c-7.722-6.801-13.42-18.42-14.332-28.684-.13-3.674-.124-7.326 0-11z"
          fill="#a1d055"/>
    <path d="M629.801 502.152C632 504 632 504 632.813 507.188L633 510l-2.02.961C623.158 514.922 617.3 519.962 611 526l-8 7-1.56 1.353c-7.006 6.072-14.024 12.076-21.44 17.647l-8-16 22-20 3.09-2.723c9.59-8.391 19.207-16.681 32.711-11.125z"
          fill="#cfeff1"/>
    <path d="M592 503c-1.511 3.677-3.649 5.719-6.625 8.313l-2.723 2.391L580 516l-4.062 3.563-2.004 1.66c-2.016 1.739-2.016 1.739-3.586 4.023-2.374 2.896-3.879 4.218-7.348 5.754-7.978.726-16.058-.157-24-1 3.188-3.267 6.44-6.27 10-9.125 3.137-2.525 6.236-5.061 9.254-7.727C568.807 503.864 578.005 496.146 592 503z"
          fill="#cceef1"/>
    <path d="M439 646c3.402 1.408 6.658 3.079 9.938 4.75 11.658 5.75 23.276 9.738 36.063 12.25l.063 4.938.035 2.777C485 673 485 673 484 674c-7.413-.046-14.172-1.633-21.125-4.062l-2.719-.931c-5.99-2.107-11.832-4.463-17.594-7.131l-2.057-.946c-4.404-2.129-7.943-4.562-11.505-7.929-.642-2.995-.434-4.234 1.063-6.875 3.008-1.747 5.719-.976 8.938-.125z"
          fill="#b7e8ea"/>
    <path d="M269 305l1 2-2.25 5.625-1.406 3.27L265 319c-2.074 4.977-3.342 9.627-4 15l-1 1c-3.068 14.64-2.294 29.868-2.276 44.743l-.014 11.68-.012 22.825-.004 18.578-.002 2.681-.004 5.395-.003 50.488-.025 46.044-.024 47.425-.015 26.566-.001 22.624-.005 11.51c-.584 35.365-.584 35.365 10.385 68.441l1.637 2.953c3.097 5.455 6.146 10.408 10.363 15.047l3.563 4.063 1.789 2.035c1.949 2.25 3.816 4.557 5.648 6.902-13.179-5.775-22.742-23.323-28.226-36.009-3.917-10.069-6.89-21.177-6.909-32.004l-.014-3.602.001-3.93-.011-4.197-.016-11.519-.022-12.43-.039-30.018-.015-14.153-.039-47.08-.006-12.212-.001-3.066-.066-49.111-.054-50.478-.036-28.318-.02-24.13-.017-12.292c-.173-38.353-.173-38.353 8.115-55.387l.906-1.99c1.32-2.858 2.719-5.448 4.469-8.072z"
          fill="#7fc4ca"/>
    <path d="M755 307c8.406 7.133 11.689 23.577 13 34 .695 10.219.556 20.485.523 30.722l.016 12.487.002 24.396-.006 19.844.002 2.863.004 5.759-.023 53.888.004 46.146.018 53.708-.004 5.737-.002 2.851.012 19.799-.013 24.158-.001 12.304c.092 31.025-4.102 58.564-26.195 82.013C731.273 748.683 731.273 748.683 726 751c1.137-3.412 2.043-4.119 5-6h2v-2c1.469-1.375 1.469-1.375 3.5-3 4.882-4.158 8.687-8.865 12.5-14l1.695-2.254c3.948-5.545 6.249-11.278 8.305-17.746h2l-.125-2.125C761 701 761 701 761.908 698.281c5.449-16.372 4.533-33.919 4.499-50.947l.018-11.976.013-23.392.003-19.037.002-2.749.005-5.53-.003-51.733.027-47.19.027-48.608.016-27.228-.002-23.181.005-11.796c.08-22.027-.226-43.333-10.267-63.414C755 309 755 309 755 307z"
          fill="#81c4cc"/>
    <path d="M751 298c4.125 1.375 5.039 4.091 6.938 7.75l1.073 2.04c2.644 5.184 4.566 10.394 6.103 16.015.764 2.993.764 2.993 1.615 4.98 2.777 7.047 2.704 13.825 2.684 21.321l.024 4.269.025 11.676.043 12.614.063 24.69.074 28.771.122 51.349.125 49.79.153 54.25.013 5.789.007 2.877.057 20.038.054 24.436.03 12.46.02 11.421.025 6.056c-.014 7.182-.083 14.49-2.246 21.408l-2 1 .49-3.627c.71-6.441.661-12.869.664-19.342l.013-4.225.022-11.555.028-12.485.052-30.125.012-8.519.06-52.989.009-12.258.002-3.077.088-49.301.071-50.703.048-28.432.028-24.224.022-12.335c.139-24.256-2.341-44.095-13.609-65.803l-3-6z"
          fill="#dffefe"/>
    <path d="M723 751l2 1c-16.026 12.247-35.247 16.165-54.939 16.12l-4.287.003c-3.918.002-7.835-.002-11.753-.007l-12.685-.002c-7.323.001-14.645-.003-21.968-.008l-31.762-.012-51.533-.018-50.057-.021-3.117-.001-15.482-.004L339 768v-1l2.187-.004 128.34-.276 15.414-.037 3.1-.007 49.67-.103 50.976-.115 31.448-.064 21.573-.052 12.441-.025 11.406-.03 6.048-.002c12.957-.08 25.215-2.193 36.897-8.034C711 757 711 757 715 757v-2l3.875-2.062 2.18-1.16L723 751z"
          fill="#82c6ce"/>
    <path d="M341.571 254.869l3.689-.012 4.105.003 4.32-.009 11.93-.011 12.845-.016 28.123-.024 17.56-.012 48.611-.026h3.146l3.153-.001 6.326-.001 3.17-.001 50.793-.045 52.139-.037 29.277-.025 24.945-.012 12.721-.011 11.665.001 4.202-.01c8.687-.051 16.387.838 24.709 3.38v2c-4.222-.469-8.281-1.05-12.415-2.023-6.513-1.313-12.94-1.257-19.563-1.238l-4.191-.012-11.447-.004c-4.124.002-8.248-.007-12.373-.014l-24.214-.012c-6.564.002-13.128 0-19.691-.004l-2.835-.002-5.702-.004-53.436-.003c-16.276.005-32.552-.006-48.828-.025l-50.194-.024c-9.386.002-18.771-.001-28.157-.015l-23.974-.001a2778.04 2778.04 0 0 1-12.218-.005 1684.85 1684.85 0 0 0-11.211.006 763.12 763.12 0 0 1-5.92-.018c-7.554.045-14.363.98-21.689 2.851-2.815.522-4.296.517-6.944-.455 2.915-1.943 3.83-2.277 7.125-2.562 4.062-.459 6.198-1.564 10.446-1.569z"
          fill="#dffefe"/>
    <path d="M519 512c10.21 0 15.879 1.057 23 8v2l4 2c-2.762 3.082-5.299 5.657-9.453 6.495-2.683.094-5.304.03-7.985-.12l-2.795-.082L519 530v-18z"
          fill="#a1d45c"/>
    <path d="M528 661c2.462 4.373 2.655 8.072 2 13-1.737 5.341-4.255 8.878-9 12-3.918 1.959-8.719 1.359-13 1-3.081-1.383-4.638-2.638-7-5 .536-3.536.536-3.536 2-5 3.279.183 6.533.522 9.801.844 2.755.135 4.618.023 7.199-.844l.332-2.738.48-3.574.457-3.551c1.041-4.471 2.037-6.137 6.73-6.137z"
          fill="#b5e9ec"/>
    <path d="M510 368c2.625 1.375 2.625 1.375 4 4 .877 5.049.792 8.722-1.937 13.125-4.129 2.528-7.342 2.908-12.062 1.875-3.062-1.937-3.062-1.937-5-5-1.033-4.721-.653-7.933 1.875-12.062 4.403-2.73 8.076-2.814 13.125-1.937z"
          fill="#9ed357"/>
    <path d="M691 396c4.285 3.838 6.631 7.633 9.063 12.813l.986 2.041 1.96 4.087 3.096 6.255c4.46 8.898 7.823 18.185 11.145 27.555l1.071 2.977c1.917 5.488 3.114 10.494 3.679 16.273l1 1c1.886 8.367 2.423 17.035 3.125 25.563l.265 3.15c.942 12.058.556 23.586-.828 35.6l-.408 3.705c-.916 8.224-1.86 16.021-4.154 23.982l-.875 4.875c-.968 5.014-2.543 9.698-5.125 14.125l-2 1 .48-1.668c17.144-61.094 11.999-118.524-18.414-174.426-1.571-2.905-2.937-5.796-4.066-8.906z"
          fill="#79c1c8"/>
    <path d="M578 566v2l-6.437 4.938-1.795 1.342c-9.281 6.661-18.276 7.171-29.471 7.197l-4.23.047-11.061.087-17.742.158-6.17.041-3.794.031-3.329.02c-2.773.129-5.263.557-7.97 1.138-3.687.188-3.687.188-7 0-2-2-2-2-2.312-4.437.313-2.562.313-2.562 1.438-4.25 4.201-2.94 8.745-3.563 13.766-3.615l3.451-.05 3.693-.025 3.849-.051 10.12-.112 14.161-.163 7.52-.08c7.808-.091 15.537-.52 23.314-1.214l-1 2c-5.868 1.554-12.132 1.19-18.16 1.246l-7.283.1-11.407.131-11.06.144-3.385.025c-9.374.144-19.017.547-27.705 4.353l2 4c4.605-.604 4.605-.604 9.15-1.531 4.094-.673 8.119-.571 12.26-.531l2.794.011 11.763.072c10.38.067 20.739.053 31.111-.423l2.478-.105c10.169-.533 16.317-3.706 23.534-10.884C575 566 575 566 578 566z"
          fill="#76bfc7"/>
    <path d="M509 512v17c-7.914-.417-15.877-1.248-23-5-.836-2.137-.836-2.137-1-4 3.354-2.363 6.036-4.043 10-5l1.258-1.516c3.42-2.914 8.498-1.634 12.742-1.484z"
          fill="#a0d45b"/>
    <path d="M632 665l2 1c-32.375 28.389-76.773 42.698-119.354 42.391-2.645-.016-5.289 0-7.935.019-12.139.013-23.765-1.298-35.711-3.41v-2c8.249.868 8.249.868 11.918 1.512 32.427 5.36 67.105 1.078 97.766-10.34C584 693 584 693 586 693v-2h5v-2h4v-2c2.906-1.257 4.796-2 8-2v-2h4v-2l5.188-2.875 2.918-1.617c2.592-1.35 5.162-2.479 7.895-3.508v-2h3l.75-1.875c1.47-2.498 2.536-3.192 5.25-4.125z"
          fill="#78c0c8"/>
    <path d="M591.375 376.938l3.773.027L598 377c4 9.261 3.515 19.115 3 29l-1 1c-.16 1.685-.277 3.373-.375 5.063-.419 5.201-1.608 9.147-3.625 13.938a113.51 113.51 0 0 0-1 4h-2l-.437 2.313c-.881 4.208-1.941 6.21-5.035 9.16-2.417 2.417-4.581 5.048-6.781 7.66-1.775 1.899-3.625 3.373-5.746 4.867l-2-1 1.941-1.582C588.693 439.716 595.764 423.832 598 406c.524-9.386.326-18.693-1-28-20.841 2.614-41.771 5.846-58.422 19.773-1.758 1.367-3.563 2.289-5.578 3.227.551-3.859 2.117-5.455 5-8 2.945-1.703 2.945-1.703 6.125-3.25l3.195-1.578C550 387 550 387 552 387v-2c6.032-1.914 12.114-3.582 18.25-5.125l2.039-.517c6.49-1.613 12.39-2.484 19.086-2.421z"
          fill="#79c1c9"/>
    <path d="M424.5 477.375c4.43.791 5.892 1.99 8.5 5.625.613 3.678.261 5.466-1.375 8.813C430 494 430 494 428 495c-2.934.284-5.15.49-8 0-3.25-2.681-3.896-4.351-4.562-8.5.563-3.5.563-3.5 2.625-6.437C421 478 421 478 424.5 477.375z"
          fill="#b5e7eb"/>
    <path d="M589 388c.395 21.364.395 21.364-2 29l-.965 3.098C581.625 432.793 574.756 442.246 563 449c-3.602 1.609-7.21 2.913-11 4l-1.957.594c-2.629.523-5.115.501-7.793.469l-2.984-.027L537 454c1.074-2.915 1.778-4.778 4-7v5c2 .043 4 .041 6 0l1-1c2.333-.041 4.667-.042 7 0v-2l2.125-.75c3.021-1.207 3.021-1.207 6-3.375C566 443 566 443 569 443v-2l2.438-.75L574 439a153.39 153.39 0 0 0 1-4c.908-1.47 1.871-2.906 2.875-4.312 2.618-3.821 4.491-7.358 6.125-11.687l1.043-2.641c1.19-4.179 1.374-8.098 1.52-12.422.366-9.536.366-9.536 1.438-13.937l-2 1c-2.331.308-4.662.509-7.004.719-1.992.077-1.992.077-2.996 1.281-1.721.375-3.452.7-5.187 1l-3 .523L565 395l-3.687.625L559 396c2.899-2.899 6.463-3.479 10.313-4.562l2.303-.67c5.91-1.699 11.185-2.912 17.385-2.768z"
          fill="#a7c96c"/>
    <path d="M513.063 652.75l2.598-.016C518 653 518 653 521 655c-1.401 3.386-2.797 5.182-6 7l-3.375.25c-4.563.944-5.434 2.597-8.137 6.16C502 670 502 670 498.625 670.938L496 671c.117-6.528 1.719-9.551 6.113-14.336 3.534-3.117 6.257-3.942 10.949-3.914z"
          fill="#b8e9ec"/>
    <path d="M712 582l2 1-1 6h-2l-.375 2.125C709.413 596.7 707.288 601.8 705 607h-2l-.324 2.195c-.731 3.032-1.829 5.05-3.488 7.68-1.772 2.848-3.52 5.68-5.125 8.625-2.197 3.889-4.796 7.487-7.387 11.121-1.389 1.972-2.701 3.965-3.988 6.004L681 645h-2l-.687 1.625c-1.768 3.2-3.849 5.665-6.312 8.375h-2l-.823 1.804c-1.896 3.537-4.72 6.076-7.552 8.884l-1.872 1.868C654.228 672.967 648.356 677.6 642 682l-2-1 1.949-1.547C673.89 653.754 698.864 621.187 712 582z"
          fill="#7ac2c8"/>
    <path d="M611 458c2.313 1.125 2.313 1.125 4 3 1.193 3.659 1.327 5.3-.312 8.813C613 472 613 472 611 473c-3.503.381-5.363.402-8.375-1.5-2.45-3.769-2.191-6.043-1.625-10.5 2.803-3.45 5.738-3.533 10-3z"
          fill="#8c87c0"/>
    <path d="M565 413c0 3 0 3-1.398 4.586l-1.977 1.789C551.802 428.886 544.751 440.211 538 452l-1-4h2v-4h2l.313-1.687c.829-2.789 2.03-4.926 3.688-7.312h2v-3l-8 6-2-1c8.317-9.487 16.676-18.092 28-24z"
          fill="#f4fcdd"/>
    <path d="M510 366c3.833 2.739 6.626 5.798 7.43 10.531.007 2.204-.112 4.289-.43 6.469l-3 1v3c-4.541 2.658-7.741 3.574-13 3-3.714-1.688-5.869-3.544-8-7-.808-4.556-1.446-9.896 1.277-13.859 5.118-4.255 9.437-5.116 15.723-3.141zm-13.125 3.938c-2.528 4.129-2.908 7.342-1.875 12.063 1.75 3.25 1.75 3.25 5 5 4.721 1.033 7.933.653 12.063-1.875 2.73-4.403 2.814-8.076 1.938-13.125-1.167-2.833-1.167-2.833-4-4-5.049-.877-8.722-.792-13.125 1.938z"
          fill="#73c8af"/>
    <path d="M526 314l6.875.438c9.292.544 18.284 1.536 27.125 4.563a130.37 130.37 0 0 0 4.5 1c3.599.767 7.032 1.755 10.5 3v2l-3.707-.84-17.98-3.723-3.338-.67-3.236-.646-2.905-.58L541 318l-2.611-.564c-5.114-.658-10.199-.558-15.35-.534l-3.472.004-10.942.031-7.434.014L483 317l1-2 16.498-.909 5.613-.312 8.065-.439 2.538-.148c3.404-.175 6.022-.28 9.286.808z"
          fill="#dbf7f8"/>
    <path d="M453 326l-3.34 1.223c-5.136 1.928-10.179 4.058-15.223 6.215l-2.748 1.158c-5.118 2.186-9.924 4.531-14.689 7.404l-3.211 1.93c-12.072 7.154-12.072 7.154-22.789 16.07l-5.312 4.313c-4.515 3.656-8.705 7.46-12.687 11.688l-2-1 3.352-3.336a148.25 148.25 0 0 0 3.422-3.578c13.4-14.118 54.48-47.962 75.227-42.086z"
          fill="#7bc2c9"/>
    <path d="M459 305c-2.255 2.255-3.546 2.626-6.566 3.523C425.34 316.881 401.069 329.239 379 347l-1-4 2.938-1.375c3.133-1.283 3.133-1.283 4.063-3.625 5.423-3 5.423-3 8-3v-2l3-1 1-2c1.961-1.289 1.961-1.289 4.375-2.625l2.398-1.352C406 325 406 325 409 325v-2l6-1 1-3c1.666-.522 3.339-1.031 5.034-1.45 3.209-.897 6.119-2.447 9.091-3.925 6.776-3.276 13.619-5.605 20.875-7.625 2.928-.976 4.956-1.082 8-1z"
          fill="#7ac2c9"/>
    <path d="M341 382h2c-1.49 3.306-3.454 6.225-5.477 9.226C321.565 415.052 311.377 440.42 304 468h-1c.573-6.664 1.814-12.773 3.688-19.187l.8-2.772c2.27-7.645 5.157-14.804 8.512-22.041l3-7h2l.621-1.863L325 405l2-1c.722-1.644 1.394-3.311 2-5h2c1.075-2.652 2.095-5.284 3-8l4-4 1.625-2.75L341 382z"
          fill="#78c0c8"/>
    <path d="M702 556c.975 3.066.999 4.949.102 8.027l-.689 2.369-.788 2.542-.815 2.659c-6.037 19.036-14.72 36.304-26.123 52.654l-1.564 2.243-1.487 2.085-1.322 1.856C668 632 668 632 665 634l2-6h2l.785-1.664c1.397-2.686 3-5.174 4.652-7.711 2.439-3.796 4.68-7.527 6.563-11.625h2l.387-1.77c.599-2.178 1.377-3.924 2.426-5.918 4.66-8.785 4.66-8.785 7.188-18.312h2l.25-2.812c.617-4.408 2.19-8.375 3.762-12.52 1.181-3.189 2.113-6.384 2.988-9.668z"
          fill="#7ac1c9"/>
    <path d="M504 439h2c4.364 9.486 4.075 18.101 3.873 28.41l-.033 3.16-.051 2.868c.22 2.672.85 4.278 2.211 6.562l.988-2.852 1.324-3.773 1.301-3.727C517 466 517 466 518.625 462.875c1.398-2.923 1.846-5.041 2.063-8.25l.199-2.648L521 450c2.777 5.183 2.777 5.183 3 8a89.51 89.51 0 0 1-3.187 7.5A161.24 161.24 0 0 0 513 486c-7.154-8.516-6.247-16.64-5.883-27.221.15-7.164-.561-13.064-3.117-19.779z"
          fill="#7ac0c7"/>
    <path d="M445.625 524.625l2.012-.002c9.758.014 19.355.229 28.363 4.377l1 2c-5.217-.593-10.239-1.448-15.375-2.562-23.702-4.649-44.182.892-64.125 14.063L394 545v-3c5.233-5 5.233-5 9-5v-2h4v-2l6.938-2.875 1.939-.816c9.894-4.037 19.087-4.696 29.748-4.684z"
          fill="#79c1c9"/>
    <path d="M318 480h1l.063 5.125.035 2.883C319 491 319 491 318.509 493.766c-.943 5.992-.798 12.055-.821 18.109l-.011 2.134c-.027 13.131.935 26.242 4.323 38.991l1 1a167.62 167.62 0 0 1 .563 6.563l.254 3.629L324 567c-2.308-3.462-3.084-6.762-4-10.75l-.5-2.035c-3.209-13.713-3.823-27.209-3.761-41.224l-.013-8.647.008-5.586-.012-2.567c.044-5.626.845-10.752 2.278-16.191z"
          fill="#77c0c8"/>
    <path d="M464 473l2.449 1.059 3.238 1.379 3.199 1.371c5.762 2.205 11.322 2.46 17.426 2.754l2.533.131L499 480c5.561 9.988 9.812 20.368 9 32l-12 1v-2l9-2c-.161-9.179-1.809-15.873-6-24l-1-3-1.829.003c-22.16-.097-22.16-.097-32.171-7.003v-2z"
          fill="#82c4cb"/>
    <path d="M440 411c17.532-.594 38.634-.952 52.742 11.543C494 424.063 494 424.063 496 427c1.616 1.725 3.304 3.353 5 5l-1 2-2.062-2.125L495 429l-1.363-1.422c-3.837-3.688-8.174-6.049-12.949-8.328l-1.83-.89c-8.964-4.099-18.248-4.688-27.983-4.985l-3.187-.117L440 413v-2z"
          fill="#81c5cc"/>
    <path d="M656 535l2 1c-3.503 4.484-7.211 8.758-11 13l-2.312 2.598C634.251 563.167 623.06 574.032 612 585l-2-1 1.541-1.525 7.021-6.975 2.424-2.398c4.353-4.335 8.533-8.745 12.537-13.404 1.737-1.997 3.573-3.859 5.477-5.697 3.881-3.829 7.464-7.854 11-12l1.77-2.059L656 535z"
          fill="#73c3cc"/>
    <path d="M552.188 718.938l2.73.027L557 719c-12.568 7.567-32.298 5.3-46.437 5.313l-2.751.01c-10.793.023-21.164-.382-31.811-2.323v-1l4.375-.062 2.461-.035c2.563.079 4.997.295 7.539.59 7.069.739 14.151.704 21.25.695l2.145.001c12.911-.009 25.853-3.414 38.417-3.251z"
          fill="#e0fbfc"/>
    <path d="M519 512c7.938-.496 14.159.543 20.5 5.563L542 520v2l4 2c-2.762 3.082-5.299 5.657-9.453 6.495-2.683.094-5.304.03-7.985-.12l-2.795-.082L519 530v-2h20c-.126-7.438-.126-7.438-2.715-9.805-5.665-2.728-11.051-4.323-17.285-5.195v-1z"
          fill="#94d17f"/>
    <path d="M665 388l4 2v2h2l4 6 1.77 2.594c9.455 14.161 20.656 31.159 22.23 48.406-1.658-2.487-2.708-4.521-3.812-7.254-6.749-16.401-14.426-31.593-25.059-45.828A85.97 85.97 0 0 1 665 388z"
          fill="#e0fbfc"/>
    <path d="M426 622l-1.984 1.363C409.714 633.443 396.392 645.883 386 660l2 1.375 2 1.625v2c-2.884-1.293-4.872-2.659-7-5 1.274-2.785 2.594-4.848 4.746-7.021l1.671-1.7 1.805-1.803 1.877-1.89 3.947-3.949 5.951-5.997C420.41 620.137 420.41 620.137 426 622z"
          fill="#76c3cb"/>
    <path d="M336 423c.703 1.563.703 1.563 1 4l-3.25 7c-2.831 5.713-4.778 11.122-6.141 17.379a40.2 40.2 0 0 1-2.109 6.496c-1.954 4.84-2.776 9.942-3.754 15.051C321 476 321 476 319 479c-.303-6.518.733-11.989 2.5-18.25l.798-2.879c3.445-12.004 7.957-23.772 13.702-34.871z"
          fill="#7bc3cb"/>
    <path d="M301 469l2 1-.402 3.551-.535 4.762-.264 2.322L301 488l-.285 2.596c-.734 7.207-.865 14.35-.84 21.591l-.012 3.404c.007 5.911.318 11.559 1.137 17.408a117.63 117.63 0 0 1 .063 5.5l-.027 2.594L301 543h-1c-1.507-10.207-2.299-20.165-2.206-30.482l.02-6.25c.067-26.149.067-26.149 2.186-28.268.232-1.515.412-3.038.563-4.562l.254-2.504L301 469z"
          fill="#76bfc8"/>
    <path d="M565 718v2c-22.073 5.778-42.306 6.207-65 5v-1l2.604-.044c19.433-.367 38.456-1.04 57.453-5.573C562 718 562 718 565 718z"
          fill="#86cbd1"/>
    <path d="M496 515l-3.812 1.938-2.145 1.09C488 519 488 519 485 520c.658 3.103.658 3.103 2.984 4.098 10.101 3.524 20.403 4.169 31.016 4.902v1c-13.29.663-24.377-.777-37-5 .711-6.766.711-6.766 3.313-8.875 4.177-1.749 6.307-2.327 10.688-1.125z"
          fill="#78c9b1"/>
    <path d="M403.375 442.75c2.625.25 2.625.25 4.438 1.375 1.701 2.686 1.452 4.762 1.188 7.875l-1 2h-7c-2-2-2-2-2.012-3.91 1.053-6.989 1.053-6.989 4.387-7.34z"
          fill="#ded379"/>
    <path d="M624 428l7 1 1 7c-2 2-2 2-5.5 2.313L623 438c-2-3-2-3-1.75-5.562C622 430 622 430 624 428z" fill="#91dee2"/>
    <path d="M370 376c0 3.549-.561 3.976-2.875 6.5-1.935 2.132-3.515 4.085-5.125 6.5h-2l-.289 1.754c-.865 2.732-2.131 4.101-4.086 6.184-2.629 2.901-4.705 5.639-6.625 9.063l-3 4.5c-2.092 3.118-4.114 6.252-6 9.5l-1-2c1.045-2.217 2.137-4.268 3.375-6.375l1.1-1.894c3.716-6.266 8.009-12.021 12.525-17.731l2.137-2.758c3.705-4.728 7.508-9.105 11.863-13.242z"
          fill="#7ac2c9"/>
    <path d="M461 378c5.4-.36 5.4-.36 7.875 1.125 1.61 2.684 1.391 4.811 1.125 7.875-1 1-1 1-2.812 1.133l-2.187-.008-2.187.008C461 388 461 388 460 387c-.237-6.525-.237-6.525 1-9z"
          fill="#d39791"/>
    <path d="M499 299l16.748-.11 5.679-.041c14.33-.129 27.989-.002 41.573 5.151-3.193 1.02-5.363.934-8.629.258-18.48-3.529-36.61-4.069-55.371-4.258v-1z"
          fill="#89cbd2"/>
    <path d="M542.438 354.688c2.563.313 2.563.313 4.438 1.438 1.125 1.875 1.125 1.875.875 5C547 364 547 364 546 365c-2.937.188-2.937.188-6 0-2-2-2-2-2.25-5 .311-3.729.905-4.828 4.688-5.312z"
          fill="#c4eef1"/>
    <path d="M296 749l6 2v2l2.313.688c3.051 1.086 5.833 2.302 8.75 3.688 8.995 4.137 18.043 6.954 27.938 7.625-5.332 2.985-9.637 1.625-15.293.129-7.281-2.217-13.873-5.035-20.52-8.754l-2.084-1.164c-3.171-1.843-5.04-3.115-7.104-6.211z"
          fill="#7fc6cd"/>
    <path d="M560 704c-9.163 3.733-17.841 5.319-27.727 5.195l-2.648-.009-8.251-.062-5.645-.027L502 709v-1l2.528-.044c15.425-.3 41.986-8.141 55.472-3.956z"
          fill="#d4f4f7"/>
    <path d="M609 581l4 1c-7.735 7.561-15.769 13.41-25 19l-3.043 1.895C578.294 607 578.294 607 576 607v-2l2.887-1.645 3.801-2.168 1.896-1.08 1.865-1.064 1.833-1.045c1.534-.891 3.043-1.822 4.549-2.759C595 594 595 594 597 594l1-3c5.371-4 5.371-4 8-4l.938-1.875L609 581z"
          fill="#c0f1f5"/>
    <path d="M564 323c16.043 1.571 30.727 9.984 45 17v3h-2l-1-2c-8.581-4.923-17.698-8.68-27-12l-2.602-.937c-4.114-1.431-8.057-2.506-12.398-3.062v-2z"
          fill="#7cc2ca"/>
    <path d="M450 422c13.914-.542 23.976 3.593 36 10-3 1-3 1-5.051.074l-2.262-1.387c-6.663-3.854-12.128-4.95-19.785-5.344-2.949-.349-5.211-1.119-7.902-2.344v10h-1v-11z"
          fill="#abcc72"/>
    <path d="M300 273v2l-1.875.25c-2.291.528-2.291.528-3.035 2.637-1.261 2.446-2.361 3.199-4.652 4.676C282.406 288.32 276.78 297.09 271 305l-1-2c19.447-30 19.447-30 30-30z"
          fill="#7ac2c9"/>
    <path d="M500.602 511.805L509 512v17c-7.914-.417-15.877-1.248-23-5-.836-2.137-.836-2.137-1-4l5-2-2 5c6.686 1.987 13.043 3.43 20 4v-14l-4 1c-1.415.065-2.833.086-4.25.063L496 514c2-2 2-2 4.602-2.195z"
          fill="#9bd488"/>
    <path d="M475 443c8.141 1.163 15.411 7.168 21 13l1-8c2.281 3.421 2.219 4.682 2.125 8.688l-.055 3.012L499 462l-2.875-2.5c-9.99-8.568-9.99-8.568-21.125-15.5v-1z"
          fill="#abcb75"/>
    <path d="M427 688c5.468 1.488 10.678 3.231 15.875 5.5 5.905 2.538 11.856 4.133 18.125 5.5v2h6v1c-6.598.38-11.584-.846-17.75-3.125l-2.644-.949c-6.806-2.499-13.261-5.405-19.606-8.926v-1z"
          fill="#7bc2ca"/>
    <path d="M402.938 440.625c2.903.355 4.649.766 7.063 2.375 1.405 2.809 1.249 4.888 1 8-1 2.375-1 2.375-3 4-4.436.739-7.224.518-11-2-.396-4.094-.558-6.759 1.125-10.5 1.875-1.5 1.875-1.5 4.813-1.875zM401 443c-1.847 3.116-2.381 5.382-2 9 1.956 2.411 1.956 2.411 5.625 2.125L408 454c1.399-2.799 1.253-4.905 1-8-1.063-1.98-1.063-1.98-3-3-2.626-.251-2.626-.251-5 0z"
          fill="#7fc2ae"/>
    <path d="M611 458c2.313 1.125 2.313 1.125 4 3 1.193 3.659 1.327 5.3-.312 8.813C613 472 613 472 611 473c-3.503.381-5.363.402-8.375-1.5-2.45-3.769-2.191-6.043-1.625-10.5 2.803-3.45 5.738-3.533 10-3zm-9 4l1 8c4.035 1.676 4.035 1.676 8.313 1.625 2.805-2.702 2.443-5.83 2.688-9.625-4.51-2.673-7.587-2.942-12 0z"
          fill="#7994bd"/>
    <path d="M368 353l2 1-1.234 1.202c-7.438 7.272-14.669 14.475-21.031 22.723C346 380 346 380 343 382c.25-2.375.25-2.375 1-5 1.938-1.062 1.938-1.062 4-2 1.225-1.95 1.225-1.95 2-4l1-2h2v-2c1.504-1.48 1.504-1.48 3.563-3.187 4.024-3.415 7.759-7.031 11.438-10.812z"
          fill="#76bec6"/>
    <path d="M363 360l1 2c-1.79 3.542-3.978 6.218-6.793 8.988l-2.158 2.139-2.236 2.186-2.271 2.244L345 383l-2-1 1.941-2.125 13.586-15.219c1.436-1.615 2.929-3.145 4.473-4.656z"
          fill="#e7fbfc"/>
    <path d="M573 454c0 2 0 2-1.437 3.5-3.645 2.134-7.438 2.751-11.562 3.5v2c-6.116 1.838-11.161 2.141-17.5 1.625l-2.492-.172L534 464v-1l3.516-.078C549.817 462.525 562.412 454 573 454z"
          fill="#82c5cc"/>
    <path d="M486 460c5.802 5.645 5.802 5.645 8 9v2c-8.212.572-14.46-.733-22-4 3.844-1.147 5.291-.517 9 1 2.664.456 5.308.726 8 1l-.937-2.25c-.872-2.257-1.539-4.395-2.062-6.75z"
          fill="#b6d188"/>
    <path d="M351 651c3.765 3.074 7.15 6.067 10.25 9.813 3.637 4.307 7.855 7.66 12.297 11.109 2.231 1.89 3.824 3.668 5.453 6.078-5.736-2.525-10.239-7.014-15-11l-2.168-1.75c-3.448-2.823-5.642-5.308-7.832-9.25l-3-2v-3z"
          fill="#7cc3c9"/>
    <path d="M584 511l3 1a619 619 0 0 1-17 15l-1.708 1.456c-4.05 3.422-4.05 3.422-6.292 4.544a75.68 75.68 0 0 1-5-1v-1l3.059-.605c4.732-1.356 7.585-4.296 11.004-7.707 9.241-8.977 9.241-8.977 12.938-11.687z"
          fill="#71c2cb"/>
    <path d="M356 581c0 4.259-2.002 5.722-4.777 8.793-3.786 3.76-7.972 6.992-12.223 10.207l-2-1c6.139-6.241 12.288-12.365 19-18z"
          fill="#ebfdfd"/>
    <path d="M723 751l2 1c-9.398 7.182-20.195 11.891-32 13 2.854-1.903 5.221-2.883 8.438-4 3.918-1.36 3.918-1.36 7.66-3.125C711 757 711 757 715 757v-2l3.875-2.062 2.18-1.16L723 751z"
          fill="#7cc2ca"/>
    <path d="M324 567c1.607 2.411 2.615 4.281 3.625 6.938l.789 2.027C329 578 329 578 329 582h2l.953 2.773 1.297 3.602 1.266 3.586c1.202 3.12 1.202 3.12 3.656 4.453L340 597l-4 3c-12-24.583-12-24.583-12-33z"
          fill="#76bec6"/>
    <path d="M533 418h1l-1 9h-2v14h2l2-4h3l-2.875 4.5-1.617 2.531L532 446h-2l-.187-9.5-.076-2.687c-.066-5.996.822-10.328 3.264-15.812z"
          fill="#a4c66e"/>
    <path d="M589 388c-1.683 2.03-2.609 2.916-5.227 3.477l-2.398.148c-2.986-.016-2.986-.016-5.375 1.375l-5.187 1-3 .523L565 395l-3.687.625L559 396c2.899-2.899 6.463-3.479 10.313-4.562l2.303-.67c5.898-1.696 11.202-2.911 17.385-2.768z"
          fill="#afce77"/>
    <path d="M306 566c1.593 3.02 2.791 6.057 3.91 9.281l1.061 3.051 1.092 3.168 1.104 3.168c2.936 8.478 2.936 8.478 3.834 12.332h-2c-4.791-9.862-8.256-20.021-9-31z"
          fill="#83c5cc"/>
    <path d="M515 372c2 2 2 2 2.195 4.164l-.07 2.461-.055 2.477L517 383l-3 1v3c-4.536 2.655-7.746 3.496-13 3l-3-2 2.52-.043 3.293-.145 3.27-.105c3.136-.417 3.136-.417 4.68-3.258L513 382h2v-10z"
          fill="#6bc6b8"/>
    <path d="M478 531c4.162.649 8.225 1.482 12.313 2.5l3.176.781C496 535 496 535 497 536c1.679.393 3.369.741 5.063 1.063l2.785.535L507 538v1c-6.676.358-12.088-.881-18.437-2.875l-2.756-.816c-4.946-1.514-4.946-1.514-6.807-2.309l-1-2z"
          fill="#80c4cc"/>
    <path d="M519 512c7.938-.496 14.159.543 20.5 5.563L542 520v2l4 2c-3.699 0-4.59-1.298-7.277-3.629-5.875-4.676-12.427-6.235-19.723-7.371v-1z"
          fill="#82cc94"/>
    <path d="M525 409h2l-3.035 8.543c-3.624 9.329-3.758 18.575-3.965 28.457h-1l-.187-10.375-.076-2.926c-.084-8.32 1.046-16.893 6.264-23.699z"
          fill="#79bfc8"/>
    <path d="M550 400l1 3-3 1c-1.779 1.831-1.779 1.831-3.5 4-3.167 3.889-3.167 3.889-6.5 5l-.5 2-.5 2-3 1c2.277-8.095 9.243-13.588 16-18z"
          fill="#abcd70"/>
    <path d="M522 491h1c-.491 6.366-.997 12.693-2 19l10 2c-3.095 1.032-4.526.975-7.687.563l-2.449-.309L519 512c-.259-6.858-.125-14.751 3-21z"
          fill="#78c3c2"/>
    <path d="M471 703l9 1 3.797.441 4.016.496 3.832.465c2.902.517 4.859 1.095 7.355 2.598-9.464-.456-18.678-1.182-28-3v-2z"
          fill="#7ec5cc"/>
    <path d="M385 553c0 4.22-2.382 6.02-5.125 8.938l-1.437 1.592c-3.194 3.448-6.435 6.007-10.437 8.471l-2-1c4.583-4.692 9.249-9.197 14.238-13.457A83.68 83.68 0 0 0 385 553z"
          fill="#e2fbfc"/>
    <path d="M567 545c2.987 4.48 3.361 7.674 3 13-1.77 4.658-4.207 7.776-8 11h-3v-2l2.875-1.875c3.117-2.119 3.85-2.769 5.125-6.125.277-2.225.277-2.225.188-4.5l-.02-2.281c-.104-2.241-.104-2.241-.742-4.437L566 546l1-1z"
          fill="#7bc2cb"/>
    <path d="M511 370c3 2 3 2 3.469 4.207.053 4.446-.018 7.066-2.406 10.918-4.007 2.453-7.456 2.735-12.062 1.875l-2-2 1.863.035 2.449.027 2.426.035c2.43-.001 2.43-.001 5.262-1.098l.5-4.75.281-2.672c.275-2.811.275-2.811.219-6.578z"
          fill="#94d372"/>
    <path d="M328 261l-7.375 3-2.117.867C313.227 267 313.227 267 311 267v2l-4.375 2.063-2.461 1.16L302 273l-2-1c5.582-3.627 11.291-6.752 17.375-9.437l3.523-1.559c3.031-.981 4.219-1.204 7.102-.004z"
          fill="#80c5cc"/>
    <path d="M301 536c4.377 4.377 4.25 12.321 4.754 18.25.071 1.775.071 1.775 1.246 2.75.072 1.519.084 3.042.063 4.563l-.027 2.504L307 566c-4.952-8.746-5.477-20.156-6-30z"
          fill="#e0fbfc"/>
    <path d="M617 519l2 1-7.187 7.313-2.041 2.092c-6.712 6.777-6.712 6.777-10.771 8.596l-2-1 20-18z" fill="#72c0ca"/>
    <path d="M415 341l-8.875 5.938-2.551 1.709-2.441 1.631-2.253 1.508C397 353 397 353 395 354l1-4h3l1-3h3v-2h3v-2c5.625-3.125 5.625-3.125 9-2z"
          fill="#e0fafb"/>
    <path d="M364 664c3.868 1.328 6.347 2.952 9.313 5.75 3.582 3.306 7.258 6.235 11.254 9.023L386 680v2c-4.047-1.692-7.15-4.484-10.437-7.312l-1.697-1.436c-3.45-2.943-6.7-6.004-9.865-9.252z"
          fill="#dcfbfb"/>
    <path d="M643.563 516.625l3.879.039c3.328.314 5.646.72 8.559 2.336l1 3-1.687-.656c-6.658-2.429-12.389-3.845-19.125-.781C633 522 633 522 630 521c4.662-3.646 7.474-4.51 13.563-4.375z"
          fill="#7bc0c9"/>
    <path d="M548 391v2c-1.539 1.332-1.539 1.332-3.625 2.813-6.895 4.873-6.895 4.873-12.375 11.188h-2c2.585-5.91 10.937-16 18-16z"
          fill="#e7fdfd"/>
    <path d="M645 368c7.089 4.693 12.463 10.623 18 17l-1 2c-4.256-3.129-7.92-6.703-11-11v-2l-1.875-.75c-2.5-1.47-2.958-2.664-4.125-5.25z"
          fill="#80c4cb"/>
    <path d="M518 659v3c-1 1-1 1-4.125 1.125-4.705 1.062-6.094 2.823-9.23 6.285-2.077 2.008-3.775 2.503-6.645 2.59l2.188-1.625c2.952-2.31 2.952-2.31 5.188-5.562 3.229-3.46 5.019-3.471 9.625-3.812l3-2z"
          fill="#75c5ce"/>
    <path d="M576 608l-10.312 6.063-2.959 1.76-2.842 1.65-2.618 1.539C555 620 555 620 552 619l2.117-1.242 2.758-1.633 2.742-1.617c2.449-1.428 2.449-1.428 4.383-3.508l5-2.187 2.688-1.105C574 607 574 607 576 608z"
          fill="#bceff4"/>
    <path d="M615 461h2c.362 3.076.487 5.932 0 9-2.562 3.063-2.562 3.063-6 5-3.875.313-3.875.313-7 0l-2-4 1.863.289 2.449.336 2.426.352c2.549.239 2.549.239 5.262-1.977.58-2.195.58-2.195.688-4.625l.199-2.477L615 461z"
          fill="#75bcd3"/>
    <path d="M472 443c2.782.376 4.588.673 6.813 2.438C480 447 480 447 480 449l5.566 6.027L487 457l-1 3-1.539-1.941c-4.063-5.105-8.18-10.135-12.461-15.059z"
          fill="#eefbcd"/>
    <path d="M721 543h1c-.516 7.882-2.092 15.345-4 23h-1c-.294-7.947.6-15.715 4-23z" fill="#e1fbfc"/>
    <path d="M649 671l3 1c-14.226 13-14.226 13-18 13v-2l5-2v-2h2v-2l6-2v-2h2v-2z" fill="#defbfb"/>
    <path d="M494 373h1l.078 1.828c.258 3.642.556 6.491 2.297 9.734 4.299 2.354 8.832 1.735 13.625 1.438l-1 2c-2.082.135-4.166.232-6.25.313l-3.516.176C497 388 497 388 494.563 385.813c-1.778-3.2-1.883-4.562-1.312-8.125l.391-2.676L494 373z"
          fill="#7bca9b"/>
    <path d="M637 683l3 1-5.562 4.375-3.129 2.461c-3.566 2.332-6.205 3.222-10.309 4.164 2.95-3.174 6.002-5.419 9.688-7.687 3.335-1.922 3.335-1.922 6.313-4.312z"
          fill="#7bc2ca"/>
    <path d="M549 623c-14.412 7.852-14.412 7.852-23 8 2.412-2.412 4.392-2.565 7.637-3.289 3.645-1.096 6.85-2.938 10.164-4.785C546 622 546 622 549 623z"
          fill="#bef0f5"/>
    <path d="M609 581l4 1-5.187 4.813-2.918 2.707c-2.541 2.177-4.972 3.872-7.895 5.48.125-1.75.125-1.75 1-4 5.222-4 5.222-4 8-4l.938-1.875L609 581z"
          fill="#bbf0f4"/>
    <path d="M529 468c1.086 3.26.913 5.105-.215 8.328l-.83 2.422-.893 2.5-.881 2.547L524 490h-1c.408-8.024 2.91-14.624 6-22z"
          fill="#7bc2c9"/>
    <path d="M676 643l3 1-4.75 5.25-2.672 2.953L665 659v-4l5-4 1-2h2v-3c1.5-1.687 1.5-1.687 3-3z" fill="#e0fbfc"/>
    <path d="M621 528l2 1-5.875 5.5-1.684 1.59C611.227 540 611.227 540 609 540v-3l2.375-.75c2.948-1.404 3.527-2.257 4.625-5.25h3v-2l2-1z"
          fill="#77bfc8"/>
    <path d="M492 438c3.67 1.223 4.299 2.837 6.133 6.113 1.944 4.23 1.976 8.001 1.93 12.637l-.027 3.547L500 463l-2-1 .211-1.949c.513-8.557-2.225-14.59-6.211-22.051z"
          fill="#f2fcdb"/>
    <path d="M657 642l2 1-16 16c0-3 0-3 2.188-5.312L648 651l2.563-3.125c2.044-2.411 3.83-4.137 6.438-5.875z"
          fill="#7bbfc6"/>
    <path d="M703 600h2c-1.392 4.627-3.295 8.647-5.625 12.875l-1.914 3.492L696 619l-1-4h2l.313-2.062c.835-3.567 2.182-6.6 3.688-9.937h2v-3z"
          fill="#e2fcfc"/>
    <path d="M374 559h4c-1.413 3.305-3.073 5.195-5.812 7.5l-2.145 1.816L363 574c1.842-4.522 5.234-7.36 8.75-10.625 1.507-1.471 1.507-1.471 2.25-4.375z"
          fill="#78c0c9"/>
    <path d="M665 635l1 2c-4.464 5.223-9.074 10.209-14 15l-2-1 2.012-1.977c4.562-4.515 9.009-8.984 12.988-14.023z"
          fill="#dbf9fa"/>
    <path d="M598 547l3 1-4.687 4.313-2.637 2.426c-2.457 2.077-4.871 3.7-7.676 5.262 1.285-2.867 2.571-4.976 5-7h2l1-3 3-1 1-2z"
          fill="#7bbec8"/>
    <path d="M351 369l3 1c-3.509 4.184-7.081 8.196-11 12 .25-2.375.25-2.375 1-5 1.938-1.062 1.938-1.062 4-2 1.225-1.95 1.225-1.95 2-4l1-2z"
          fill="#7dc3cb"/>
    <path d="M506 503c2 2 2 2 2.125 5.625L508 512l-12 1v-2l9-2 1-6z" fill="#70c4bc"/>
    <path d="M497 370l3 1-2 3c-.242 2.745-.242 2.745-.125 5.688l.055 3.012L498 385c-2.022-1.664-2.921-2.53-3.363-5.156l.051-2.344.012-2.344C495 373 495 373 497 370z"
          fill="#98d370"/>
    <path d="M584 525c0 3 0 3-1.898 5.191l-2.477 2.371-2.461 2.379L575 537l-2 2c0-4 0-4 2.406-6.578l3.094-2.672 1.59-1.391L584 525z"
          fill="#c3f3f6"/>
    <path d="M609 504l2 1-6.375 5.438-1.828 1.564c-4.57 3.885-4.57 3.885-6.797 4.998 1.495-3.615 3.561-5.644 6.5-8.187l2.406-2.105C607 505 607 505 609 504z"
          fill="#c1f1f6"/>
    <path d="M317 426c1.373 3.715.606 5.979-.75 9.625l-1.047 2.914C314 441 314 441 311 443c1.662-5.857 3.47-11.459 6-17z"
          fill="#dbf8f9"/>
    <path d="M428 478l1 2-3.25-.312c-3.825-.068-3.825-.068-6.125 2.5-1.571 2.718-2.271 4.716-2.625 7.813h-1c-.421-4.291-.455-6.351 2.063-9.937 3.586-2.518 5.646-2.483 9.938-2.062z"
          fill="#a8e9ef"/>
    <path d="M521 444c3.508 3.508 4.125 7.561 4.125 12.375L525 460h-2c-.978-5.308-1.501-10.631-2-16z" fill="#dbf9fa"/>
    <path d="M545 524l2 2-2 2 8 1v1h-14l6-6z" fill="#b0e5dc"/>
    <path d="M568 457l-5.875 2.5-3.305 1.406C556 462 556 462 554 462c1-3 1-3 2.926-3.984l2.387-.766 2.363-.797c2.493-.486 3.942-.26 6.324.547z"
          fill="#defafb"/>
    <path d="M704 553h1c.194 5.527-.252 9.756-2 15h-2c.551-5.239 1.429-9.974 3-15z" fill="#ddf9fa"/>
    <path d="M556 453h-2v2h-17v-1l7.25-1.062 2.066-.314c3.469-.488 6.353-.851 9.684.377z" fill="#edfad6"/>
    <path d="M557 415l4 1-4.375 3.438-2.461 1.934C552 423 552 423 550 424l1-4h2l1-3h3v-2z" fill="#abcd70"/>
    <path d="M342 639h3c1.859 1.863 1.859 1.863 3.75 4.313l1.922 2.426L352 648l-1 3-4.5-5.437-2.531-3.059C342 640 342 640 342 639z"
          fill="#ddfbfb"/>
    <path d="M592 541c0 3 0 3-1.609 4.789l-2.141 1.836-2.109 1.852c-2.116 1.506-3.604 2.101-6.141 2.523 3.804-3.919 7.816-7.491 12-11z"
          fill="#7ac4cd"/>
    <path d="M533 514c3.438 1.528 6.19 3.502 9 6v2l4 2c-3.719 0-4.361-.874-7.062-3.312l-2.098-1.863C535 517 535 517 533 514z"
          fill="#6fc5aa"/>
    <path d="M472 466c7.875.875 7.875.875 9 2l4.063.563L489 469v1c-6.518.354-11.175.039-17-3v-1z" fill="#aaca73"/>
    <path d="M372 371l3 1-3 1-.875 1.813c-1.48 2.879-3.548 4.288-6.125 6.188v-3h2v-2h2v-3l3-2z" fill="#d6f5f7"/>
    <path d="M481.25 572.313L483 573l-2.5 1.125L478 576c-.417 3.126-.417 3.126 0 6h-2l-1-7c3.446-3.077 3.446-3.077 6.25-2.687z"
          fill="#dcf8fa"/>
    <path d="M536 409l3 1-2.875 5-1.617 2.813L533 420h-2l2-7 2-1 1-3z" fill="#f4fdde"/>
    <path d="M303 271l-11 7v-3h2v-2c5.625-3.125 5.625-3.125 9-2z" fill="#e0fbfc"/>
    <path d="M508 653l4.813-.125 2.707-.07C518 653 518 653 521 655l-1 3-1-3-2.125.625c-3.477.454-5.649-.35-8.875-1.625v-1z"
          fill="#a0e5ea"/>
    <path d="M562 507l3 1-10 9v-3l4-2v-2h2l1-3z" fill="#75c2cb"/>
    <path d="M592 640l2 1-4.312 3.063-2.426 1.723L585 647l-3-1c3.125-2.524 6.313-4.397 10-6z" fill="#74c3cd"/>
    <path d="M346 590c0 4.353-2.062 5.928-5 9-2.172.68-2.172.68-4 1l2.813-3.312 1.582-1.863c1.477-1.678 3.006-3.263 4.605-4.824z"
          fill="#d2f4f5"/>
    <path d="M576 434l3 1-7 8-1-3 3-1c.662-1.98.662-1.98 1-4l1-1z" fill="#aece77"/>
    <path d="M486 433c7.667 5.966 7.667 5.966 9 11-3.794-1.265-4.067-2.617-6-6l-1.687-1.687L486 435v-2z"
          fill="#a5c76d"/>
    <path d="M331 431c1.214 3.642.667 4.332-.937 7.688l-1.152 2.449L328 443h-1c.468-4.776 1.243-8.045 4-12z"
          fill="#e4fcfc"/>
    <path d="M565 718v2c-2.525 1.262-4.312 1.099-7.125 1.063l-2.758-.027L553 721c4.027-2.103 7.431-3 12-3z"
          fill="#83c7cf"/>
    <path d="M615 638l2 1-3.875 4-2.18 2.25C609 647 609 647 607 647c1.583-4.274 4.506-6.265 8-9z" fill="#71c4cc"/>
    <path d="M516 474h1c.391 5.859.391 5.859 0 8l-4 4 3-12z" fill="#dcf7f8"/>
    <path d="M533 418h1l-1 9h-2l-1 3c.508-4.318 1.197-8.033 3-12z" fill="#b2d17d"/>
    <path d="M615 698l-10 5v-2h2v-2c3.406-2.068 3.812-2.047 8-1z" fill="#e0fbfc"/>
    <path d="M306 457h1l.188 4.313.105 2.426c-.355 2.74-1.187 3.553-3.293 5.262 1-8.571 1-8.571 2-12z" fill="#d8f7f8"/>
    <path d="M472 444l3.375 2.813 1.898 1.582C479 450 479 450 481 453l-2 1-1.812-2.375c-2.098-2.771-2.098-2.771-5.187-4.625v-3z"
          fill="#a9cb6d"/>
    <path d="M565 413v3l-5 4v-2l-2-1 7-4z" fill="#e5f7bb"/>
    <path d="M595 333c4.242-.364 6.582.461 10 3v2c-3.912-1.156-6.875-2.355-10-5z" fill="#ddfafb"/>
    <path d="M601 616h2l-.625 2.75c-.388 3.36-.179 4.491 1.625 7.25l-4-2v-7l1-1z" fill="#adeaef"/>
    <path d="M609 581l4 1-7 6c1-4 1-4 3-7z" fill="#b2eaef"/>
    <path d="M619 515l3 1-8 6 1-4 4-1v-2z" fill="#beeff4"/>
    <path d="M574 440v3l-3 1-1 3-5 1c2.853-2.932 5.651-5.643 9-8z" fill="#f4fcde"/>
    <path d="M433 483h1v9l-4 2 .938-2.125c1.096-2.964 1.627-5.752 2.063-8.875z" fill="#70c4cd"/>
    <path d="M459 454l3 1v2h2l2 5-3.5-2.875-1.969-1.617L459 456v-2z" fill="#a6ca6a"/>
    <path d="M584 380v1l-4.312 1.125-2.426.633C575 383 575 383 572 381c3.981-1.327 7.85-1.069 12-1z" fill="#e5fdfd"/>
    <path d="M764 327l3 1v9c-1.803-3.607-2.466-6.084-3-10z" fill="#d7f6f7"/>
</svg>